<?xml version="1.0" encoding="UTF-8"?>
<svg width="24px" height="24px" viewBox="0 0 24 24" version="1.1" xmlns="http://www.w3.org/2000/svg" xmlns:xlink="http://www.w3.org/1999/xlink">
    <!-- Generator: Sketch 49.3 (51167) - http://www.bohemiancoding.com/sketch -->
    <title>ic-twitter</title>
    <desc>Created with Sketch.</desc>
    <defs></defs>
    <g id="Page-1" stroke="none" stroke-width="1" fill="none" fill-rule="evenodd">
        <g id="Desktop-HD-Copy-53" transform="translate(-642.000000, -500.000000)">
            <g id="Group-18" transform="translate(513.000000, 375.000000)">
                <g id="Group-3" transform="translate(0.000000, 125.000000)">
                    <g id="Group-14" transform="translate(129.000000, 0.000000)">
                        <g id="Group-12">
                            <g id="ic-twitter">
                                <rect id="bounds" x="0" y="0" width="24" height="24"></rect>
                                <path d="M7.53901561,21.765006 C16.5954382,21.765006 21.5510204,14.2548019 21.5510204,7.7530012 C21.5510204,7.54171669 21.5510204,7.33043217 21.5414166,7.11914766 C22.5018007,6.42767107 23.3373349,5.55372149 24,4.56452581 C23.1164466,4.95828331 22.1656663,5.21758703 21.1668667,5.34243697 C22.1848739,4.73739496 22.9627851,3.76740696 23.3373349,2.61494598 C22.3865546,3.18157263 21.3301321,3.58493397 20.2064826,3.80582233 C19.3037215,2.84543818 18.0264106,2.25 16.6146459,2.25 C13.8967587,2.25 11.6878752,4.45888355 11.6878752,7.17677071 C11.6878752,7.56092437 11.7358944,7.93547419 11.8127251,8.30042017 C7.7214886,8.0987395 4.09123649,6.12995198 1.66146459,3.1527611 C1.23889556,3.88265306 0.99879952,4.72779112 0.99879952,5.63055222 C0.99879952,7.34003601 1.8727491,8.84783914 3.18847539,9.73139256 C2.3817527,9.70258103 1.62304922,9.48169268 0.960384154,9.1167467 C0.960384154,9.13595438 0.960384154,9.15516206 0.960384154,9.18397359 C0.960384154,11.5657263 2.66026411,13.5633253 4.90756303,14.0147059 C4.49459784,14.129952 4.06242497,14.187575 3.61104442,14.187575 C3.29411765,14.187575 2.98679472,14.1587635 2.68907563,14.1011405 C3.31332533,16.0603241 5.13805522,17.4816927 7.28931573,17.520108 C5.59903962,18.8454382 3.47659064,19.6329532 1.17166867,19.6329532 C0.777911164,19.6329532 0.384153661,19.6137455 0,19.5657263 C2.17046819,20.9486795 4.7635054,21.765006 7.53901561,21.765006 Z" id="Shape" fill="#606C76" fill-rule="nonzero"></path>
                            </g>
                        </g>
                    </g>
                </g>
            </g>
        </g>
    </g>
</svg>