<?xml version="1.0" encoding="UTF-8"?>
<svg width="263px" height="35px" viewBox="0 0 263 35" version="1.1" xmlns="http://www.w3.org/2000/svg" xmlns:xlink="http://www.w3.org/1999/xlink">
    <!-- Generator: Sketch 49.3 (51167) - http://www.bohemiancoding.com/sketch -->
    <title>Sketchsheets</title>
    <desc>Created with Sketch.</desc>
    <defs></defs>
    <g id="Page-1" stroke="none" stroke-width="1" fill="none" fill-rule="evenodd">
        <g id="Desktop-HD-Copy-59" transform="translate(-748.000000, -810.000000)" fill="#5D6C77">
            <path d="M767.734127,819.214015 C767.440074,817.391089 766.62055,816.007344 765.275529,815.062737 C763.930509,814.11813 762.245175,813.645833 760.219476,813.645833 C757.997742,813.645833 756.211669,814.181655 754.861203,815.253314 C753.510737,816.324974 752.835515,817.689386 752.835515,819.346591 C752.835515,820.705499 753.358268,821.824096 754.40379,822.702415 C755.449311,823.580734 757.082915,824.318179 759.304649,824.914773 L762.702578,825.842803 C765.871816,826.70455 768.232373,827.878386 769.78432,829.364347 C771.336266,830.850307 772.112228,832.769875 772.112228,835.123106 C772.112228,836.979176 771.641206,838.652928 770.699147,840.144413 C769.757088,841.635898 768.384861,842.81802 766.582425,843.690814 C764.779989,844.563609 762.593683,845 760.023442,845 C756.42946,845 753.576099,844.138266 751.463274,842.414773 C749.350448,840.691279 748.196035,838.437514 748,835.653409 L752.182067,835.653409 C752.290975,836.934981 752.718435,837.992815 753.464458,838.826941 C754.210482,839.661068 755.157972,840.279749 756.306957,840.683002 C757.455942,841.086255 758.694758,841.287879 760.023442,841.287879 C761.569943,841.287879 762.958506,841.031016 764.189172,840.517282 C765.419838,840.003549 766.394555,839.285437 767.113351,838.362926 C767.832148,837.440415 768.191541,836.360486 768.191541,835.123106 C768.191541,833.598477 767.644283,832.443975 766.549753,831.659564 C765.455222,830.875154 763.780778,830.151518 761.526372,829.488636 L757.40965,828.295455 C754.795845,827.53314 752.726614,826.444925 751.201895,825.030777 C749.677175,823.616628 748.914827,821.76611 748.914827,819.479167 C748.914827,817.578905 749.423967,815.918962 750.442262,814.49929 C751.460556,813.079617 752.832783,811.97483 754.558983,811.184896 C756.285184,810.394961 758.215558,810 760.350166,810 C762.506554,810 764.415148,810.394961 766.076003,811.184896 C767.736858,811.97483 769.054631,813.063045 770.029363,814.449574 C771.004094,815.836102 771.545906,817.424233 771.654814,819.214015 L767.734127,819.214015 Z M792.067959,844.403409 L783.066714,832.272727 L780.109862,835.504261 L780.109862,844.403409 L776.25452,844.403409 L776.25452,810.464015 L780.109862,810.464015 L780.109862,830.416667 L780.567276,830.416667 L790.761063,818.948864 L795.531233,818.948864 L785.664169,829.786932 L796.57675,844.403409 L792.067959,844.403409 Z M808.135675,844.933712 C805.717906,844.933712 803.635061,844.389605 801.887079,843.301373 C800.139097,842.213142 798.794097,840.688536 797.852038,838.727509 C796.90998,836.766483 796.438957,834.482336 796.438957,831.875 C796.438957,829.267664 796.90998,826.966945 797.852038,824.972775 C798.794097,822.978604 800.111871,821.420855 801.805398,820.299479 C803.498926,819.178104 805.478309,818.617424 807.743606,818.617424 C809.050509,818.617424 810.341055,818.838382 811.615285,819.280303 C812.889515,819.722224 814.049373,820.437574 815.094895,821.426373 C816.140417,822.415172 816.973555,823.724345 817.594334,825.35393 C818.215112,826.983515 818.525497,828.980417 818.525497,831.344697 L818.525497,833.001894 L800.343309,833.001894 C800.539344,835.752855 801.318028,837.843664 802.679385,839.274384 C804.040742,840.705105 805.859487,841.420455 808.135675,841.420455 C809.671285,841.420455 810.978168,841.089018 812.056362,840.426136 C813.134557,839.763254 813.918687,838.768946 814.408775,837.443182 L818.133428,838.503788 C817.545322,840.426146 816.369127,841.978372 814.604809,843.160511 C812.840491,844.342651 810.684135,844.933712 808.135675,844.933712 Z M807.743606,822.130682 C805.815925,822.130682 804.193212,822.782506 802.875419,824.086174 C801.557626,825.389842 800.740824,827.234837 800.42499,829.621212 L814.604809,829.621212 C814.604809,827.466845 813.98404,825.679852 812.742483,824.26018 C811.500926,822.840507 809.83465,822.130682 807.743606,822.130682 Z M832.992265,818.948864 L832.992265,822.594697 L827.633992,822.594697 L827.633992,837.111742 C827.633992,838.216546 827.79463,839.042374 828.11591,839.589252 C828.43719,840.13613 828.851037,840.500709 829.357461,840.683002 C829.863886,840.865294 830.400252,840.956439 830.966577,840.956439 C831.39132,840.956439 831.739822,840.931582 832.012093,840.881866 C832.284365,840.832149 832.502179,840.79072 832.665541,840.757576 L833.449679,844.270833 C833.188298,844.370266 832.82346,844.472458 832.355154,844.577415 C831.886847,844.682371 831.293304,844.734848 830.574508,844.734848 C829.485423,844.734848 828.420858,844.497319 827.380781,844.022254 C826.340705,843.547188 825.48034,842.823553 824.799662,841.851326 C824.118984,840.879099 823.77865,839.652785 823.77865,838.172348 L823.77865,822.594697 L819.988652,822.594697 L819.988652,818.948864 L823.77865,818.948864 L823.77865,813.513258 L827.633992,813.513258 L827.633992,818.948864 L832.992265,818.948864 Z M856.54196,826.57197 L852.686617,826.57197 C852.392564,825.411926 851.741845,824.381712 850.734442,823.481297 C849.727038,822.580882 848.373869,822.130682 846.674896,822.130682 C844.42049,822.130682 842.604467,823.000702 841.226774,824.740767 C839.849082,826.480833 839.160245,828.792599 839.160245,831.676136 C839.160245,834.625962 839.840914,836.987444 841.20227,838.760653 C842.563627,840.533863 844.387817,841.420455 846.674896,841.420455 C848.177834,841.420455 849.465658,841.028255 850.538407,840.243845 C851.611156,839.459434 852.327219,838.371219 852.686617,836.979167 L856.54196,836.979167 C856.324143,838.481699 855.787776,839.832301 854.932844,841.031013 C854.077912,842.229725 852.950726,843.179842 851.551251,843.881392 C850.151777,844.582942 848.526341,844.933712 846.674896,844.933712 C844.344254,844.933712 842.329476,844.373033 840.630503,843.251657 C838.93153,842.130282 837.619202,840.572532 836.69348,838.578362 C835.767757,836.584191 835.304903,834.283473 835.304903,831.676136 C835.304903,829.135088 835.775925,826.881323 836.717984,824.914773 C837.660043,822.948222 838.977816,821.407045 840.671344,820.291193 C842.364871,819.175342 844.344254,818.617424 846.609552,818.617424 C848.37387,818.617424 849.963911,818.94886 851.379721,819.611742 C852.795532,820.274625 853.955391,821.202646 854.859332,822.395833 C855.763272,823.589021 856.324143,824.981053 856.54196,826.57197 Z M863.036664,829.024621 L863.036664,844.403409 L859.181321,844.403409 L859.181321,810.464015 L863.036664,810.464015 L863.036664,822.528409 L863.298043,822.528409 C863.918822,821.56723 864.841808,820.675115 866.067029,819.852036 C867.29225,819.028957 868.852341,818.617424 870.747349,818.617424 C873.099774,818.617424 875.038316,819.432205 876.563036,821.06179 C878.087755,822.691375 878.850103,825.080477 878.850103,828.229167 L878.850103,844.403409 L874.994761,844.403409 L874.994761,828.229167 C874.994761,826.373097 874.496512,824.936874 873.499999,823.920455 C872.503486,822.904035 871.172099,822.395833 869.505798,822.395833 C868.482058,822.395833 867.474669,822.616791 866.483602,823.058712 C865.492534,823.500634 864.670287,824.207697 864.016836,825.179924 C863.363385,826.152151 863.036664,827.433704 863.036664,829.024621 Z M901.223592,824.649621 L897.760318,825.643939 C897.607846,825.268306 897.365528,824.787724 897.033357,824.202178 C896.701186,823.616632 896.178433,823.091858 895.465082,822.627841 C894.751731,822.163823 893.75251,821.931818 892.46739,821.931818 C890.931779,821.931818 889.654846,822.29916 888.636551,823.033854 C887.618257,823.768548 887.109117,824.68276 887.109117,825.776515 C887.109117,826.638262 887.457619,827.425423 888.154633,828.138021 C888.851648,828.850619 889.918936,829.389203 891.356528,829.753788 L895.081181,830.681818 C897.36826,831.245268 899.0182,832.137383 900.031049,833.358191 C901.043899,834.578999 901.550316,835.918553 901.550316,837.376894 C901.550316,838.680562 901.185478,839.906876 900.45579,841.055871 C899.726103,842.204867 898.65337,843.138412 897.237559,843.856534 C895.821749,844.574656 894.079238,844.933712 892.009976,844.933712 C890.006059,844.933712 888.339784,844.618848 887.0111,843.98911 C885.682416,843.359372 884.620573,842.552877 883.825541,841.569602 C883.030509,840.586327 882.426076,839.564399 882.012223,838.503788 L885.540842,837.17803 C885.998258,838.338074 886.714321,839.35724 887.689052,840.235559 C888.663783,841.113877 890.082296,841.55303 891.944631,841.55303 C893.741622,841.55303 895.138353,841.144259 896.134866,840.326705 C897.131379,839.50915 897.629628,838.570081 897.629628,837.50947 C897.629628,835.830168 896.431652,834.703286 894.035665,834.128788 L889.853598,833.068182 C887.566519,832.471588 885.894798,831.529757 884.838385,830.242661 C883.781973,828.955565 883.253774,827.533152 883.253774,825.975379 C883.253774,824.539134 883.654007,823.268629 884.454485,822.163826 C885.254962,821.059022 886.349477,820.191765 887.73806,819.562027 C889.126644,818.932289 890.703072,818.617424 892.46739,818.617424 C894.787141,818.617424 896.663063,819.15877 898.09521,820.241477 C899.527357,821.324185 900.570141,822.793551 901.223592,824.649621 Z M908.567778,829.024621 L908.567778,844.403409 L904.712435,844.403409 L904.712435,810.464015 L908.567778,810.464015 L908.567778,822.528409 L908.829157,822.528409 C909.449936,821.56723 910.372922,820.675115 911.598143,819.852036 C912.823364,819.028957 914.383455,818.617424 916.278463,818.617424 C918.630888,818.617424 920.56943,819.432205 922.09415,821.06179 C923.618869,822.691375 924.381218,825.080477 924.381218,828.229167 L924.381218,844.403409 L920.525875,844.403409 L920.525875,828.229167 C920.525875,826.373097 920.027626,824.936874 919.031113,823.920455 C918.0346,822.904035 916.703213,822.395833 915.036912,822.395833 C914.013172,822.395833 913.005783,822.616791 912.014716,823.058712 C911.023648,823.500634 910.201401,824.207697 909.54795,825.179924 C908.894499,826.152151 908.567778,827.433704 908.567778,829.024621 Z M939.828158,844.933712 C937.410389,844.933712 935.327544,844.389605 933.579562,843.301373 C931.83158,842.213142 930.48658,840.688536 929.544521,838.727509 C928.602463,836.766483 928.13144,834.482336 928.13144,831.875 C928.13144,829.267664 928.602463,826.966945 929.544521,824.972775 C930.48658,822.978604 931.804354,821.420855 933.497881,820.299479 C935.191409,819.178104 937.170792,818.617424 939.436089,818.617424 C940.742992,818.617424 942.033538,818.838382 943.307768,819.280303 C944.581998,819.722224 945.741856,820.437574 946.787378,821.426373 C947.8329,822.415172 948.666038,823.724345 949.286817,825.35393 C949.907595,826.983515 950.21798,828.980417 950.21798,831.344697 L950.21798,833.001894 L932.035792,833.001894 C932.231827,835.752855 933.010511,837.843664 934.371868,839.274384 C935.733225,840.705105 937.55197,841.420455 939.828158,841.420455 C941.363768,841.420455 942.670651,841.089018 943.748845,840.426136 C944.82704,839.763254 945.61117,838.768946 946.101258,837.443182 L949.825911,838.503788 C949.237805,840.426146 948.061611,841.978372 946.297292,843.160511 C944.532974,844.342651 942.376618,844.933712 939.828158,844.933712 Z M939.436089,822.130682 C937.508408,822.130682 935.885696,822.782506 934.567902,824.086174 C933.250109,825.389842 932.433307,827.234837 932.117473,829.621212 L946.297292,829.621212 C946.297292,827.466845 945.676523,825.679852 944.434966,824.26018 C943.193409,822.840507 941.527133,822.130682 939.436089,822.130682 Z M964.684748,844.933712 C962.266979,844.933712 960.184135,844.389605 958.436153,843.301373 C956.688171,842.213142 955.343171,840.688536 954.401112,838.727509 C953.459053,836.766483 952.988031,834.482336 952.988031,831.875 C952.988031,829.267664 953.459053,826.966945 954.401112,824.972775 C955.343171,822.978604 956.660944,821.420855 958.354472,820.299479 C960.047999,819.178104 962.027382,818.617424 964.29268,818.617424 C965.599582,818.617424 966.890129,818.838382 968.164359,819.280303 C969.438588,819.722224 970.598447,820.437574 971.643969,821.426373 C972.689491,822.415172 973.522628,823.724345 974.143407,825.35393 C974.764186,826.983515 975.07457,828.980417 975.07457,831.344697 L975.07457,833.001894 L956.892382,833.001894 C957.088417,835.752855 957.867102,837.843664 959.228458,839.274384 C960.589815,840.705105 962.40856,841.420455 964.684748,841.420455 C966.220359,841.420455 967.527241,841.089018 968.605436,840.426136 C969.68363,839.763254 970.46776,838.768946 970.957848,837.443182 L974.682501,838.503788 C974.094395,840.426146 972.918201,841.978372 971.153883,843.160511 C969.389565,844.342651 967.233208,844.933712 964.684748,844.933712 Z M964.29268,822.130682 C962.364999,822.130682 960.742286,822.782506 959.424493,824.086174 C958.106699,825.389842 957.289898,827.234837 956.974063,829.621212 L971.153883,829.621212 C971.153883,827.466845 970.533113,825.679852 969.291556,824.26018 C968.049999,822.840507 966.383723,822.130682 964.29268,822.130682 Z M989.541339,818.948864 L989.541339,822.594697 L984.183066,822.594697 L984.183066,837.111742 C984.183066,838.216546 984.343704,839.042374 984.664984,839.589252 C984.986264,840.13613 985.40011,840.500709 985.906535,840.683002 C986.412959,840.865294 986.949326,840.956439 987.51565,840.956439 C987.940394,840.956439 988.288896,840.931582 988.561167,840.881866 C988.833438,840.832149 989.051252,840.79072 989.214615,840.757576 L989.998752,844.270833 C989.737372,844.370266 989.372534,844.472458 988.904227,844.577415 C988.43592,844.682371 987.842378,844.734848 987.123581,844.734848 C986.034496,844.734848 984.969931,844.497319 983.929855,844.022254 C982.889778,843.547188 982.029414,842.823553 981.348736,841.851326 C980.668057,840.879099 980.327723,839.652785 980.327723,838.172348 L980.327723,822.594697 L976.537725,822.594697 L976.537725,818.948864 L980.327723,818.948864 L980.327723,813.513258 L984.183066,813.513258 L984.183066,818.948864 L989.541339,818.948864 Z M1010.67328,824.649621 L1007.21,825.643939 C1007.05753,825.268306 1006.81521,824.787724 1006.48304,824.202178 C1006.15087,823.616632 1005.62812,823.091858 1004.91477,822.627841 C1004.20142,822.163823 1003.20219,821.931818 1001.91707,821.931818 C1000.38146,821.931818 999.10453,822.29916 998.086236,823.033854 C997.067941,823.768548 996.558801,824.68276 996.558801,825.776515 C996.558801,826.638262 996.907303,827.425423 997.604318,828.138021 C998.301332,828.850619 999.36862,829.389203 1000.80621,829.753788 L1004.53087,830.681818 C1006.81794,831.245268 1008.46788,832.137383 1009.48073,833.358191 C1010.49358,834.578999 1011,835.918553 1011,837.376894 C1011,838.680562 1010.63516,839.906876 1009.90547,841.055871 C1009.17579,842.204867 1008.10305,843.138412 1006.68724,843.856534 C1005.27143,844.574656 1003.52892,844.933712 1001.45966,844.933712 C999.455744,844.933712 997.789468,844.618848 996.460784,843.98911 C995.1321,843.359372 994.070258,842.552877 993.275225,841.569602 C992.480193,840.586327 991.87576,839.564399 991.461907,838.503788 L994.990526,837.17803 C995.447942,838.338074 996.164005,839.35724 997.138736,840.235559 C998.113467,841.113877 999.53198,841.55303 1001.39432,841.55303 C1003.19131,841.55303 1004.58804,841.144259 1005.58455,840.326705 C1006.58106,839.50915 1007.07931,838.570081 1007.07931,837.50947 C1007.07931,835.830168 1005.88134,834.703286 1003.48535,834.128788 L999.303282,833.068182 C997.016203,832.471588 995.344482,831.529757 994.28807,830.242661 C993.231657,828.955565 992.703458,827.533152 992.703458,825.975379 C992.703458,824.539134 993.103691,823.268629 993.904169,822.163826 C994.704647,821.059022 995.799161,820.191765 997.187745,819.562027 C998.576329,818.932289 1000.15276,818.617424 1001.91707,818.617424 C1004.23683,818.617424 1006.11275,819.15877 1007.54489,820.241477 C1008.97704,821.324185 1010.01982,822.793551 1010.67328,824.649621 Z" id="Sketchsheets"></path>
        </g>
    </g>
</svg>