<?xml version="1.0" encoding="UTF-8" standalone="no"?>
<svg width="118px" height="16px" viewBox="0 0 118 16" version="1.1" xmlns="http://www.w3.org/2000/svg" xmlns:xlink="http://www.w3.org/1999/xlink" xmlns:sketch="http://www.bohemiancoding.com/sketch/ns">
    <!-- Generator: Sketch 3.5.2 (25235) - http://www.bohemiancoding.com/sketch -->
    <title>Group 2</title>
    <desc>Created with Sketch.</desc>
    <defs></defs>
    <g id="Logo" stroke="none" stroke-width="1" fill="none" fill-rule="evenodd" sketch:type="MSPage">
        <g id="Artboard-2" sketch:type="MSArtboardGroup" transform="translate(-982.000000, -694.000000)">
            <g id="Group-2" sketch:type="MSLayerGroup" transform="translate(982.000000, 694.000000)">
                <g id="Group" transform="translate(20.406015, 0.666667)" fill="#29203F" sketch:type="MSShapeGroup">
                    <path d="M7.40019455,6.47503435 C7.40019455,3.78067637 4.60628921,3.55555571 3.51498289,3.55555556 C2.42367658,3.5555554 0.0699480292,3.94428076 0.0699481716,6.37294659 C0.0699480282,9.84856754 5.81035567,8.72153388 5.8103558,10.3797671 C5.81035567,12.1463521 1.85139714,11.8812322 1.85139722,9.90000418 C1.85139709,9.90000407 0.000166704272,9.90000418 0.000166704272,9.90000418 C0.000166704272,9.90000418 -0.0921961949,13.2745074 4.07121246,13.2745074 C7.90325373,13.2745073 7.90325373,10.1912566 7.90325373,9.90000407 C7.90325373,6.8946459 2.07115644,7.72826597 2.07115646,6.08301078 C2.07115644,4.64833482 5.35338797,5.02931326 5.35338827,6.42209385 C5.35338816,6.42209392 7.40019483,6.42209392 7.40019455,6.47503435 Z M8.87218045,0.0428480382 L8.87218045,12.9121503 L10.828274,12.9121503 L10.7947568,9.44383833 L11.4151756,8.84543101 L14.027108,12.9776493 L16.5021121,12.9776493 L12.9495991,7.66531881 L16.4201323,4.03390501 L13.6627225,4.03390501 L10.7947568,6.93271546 L10.7947568,1.5187851e-13 L8.87218045,0.0428480382 Z M22.7510697,10.0192244 C22.7510699,11.2648951 21.3252662,11.3756289 20.7577166,11.375629 C19.5126533,11.375629 18.695776,10.6104379 18.695776,8.92141367 C18.695776,8.92141367 24.8918854,8.92141367 24.8918854,8.92141367 C24.8918854,8.92141367 25.5849908,3.99999975 20.7577166,4 C15.9304425,4.00000025 16.4280736,8.87072248 16.4280736,8.87072248 C16.4280736,8.87072248 16.6235474,13.2242616 20.7577165,13.2242617 C24.8918856,13.2242618 24.8403508,9.98230795 24.8403508,9.98230795 C24.8403508,9.98230795 22.7510699,10.0192244 22.7510697,10.0192244 Z M18.6315789,7.5739686 L22.8395373,7.5739686 C22.8395373,7.5739686 22.6303978,5.77777789 20.7355582,5.77777778 C18.8407186,5.77777766 18.6315789,7.5739686 18.6315789,7.5739686 Z M26.518324,1.33333333 L28.4613095,1.33333333 L28.4613095,3.80242998 L30.0359956,3.80242998 L30.0359956,5.47603111 L28.4561209,5.47603111 L28.4561209,10.3000708 C28.4561209,10.3000708 28.3756709,11.2213678 29.2058333,11.2213674 C30.0359957,11.2213669 30.2979744,11.2006988 30.2979744,11.2006988 L30.2979742,13.0443081 L28.4713389,13.0443081 C27.9780368,13.0443081 26.3927684,12.719958 26.3927684,10.3748832 C26.3927684,8.02980847 26.3927684,5.51412925 26.3927684,5.51412925 L25.0639098,5.51412925 L25.0639098,3.80237953 L26.5124546,3.80237953 L26.518324,1.33333333 Z M38.8236795,7.42387619 C38.8236795,7.42387619 38.8140346,4.00000025 34.7314008,4 C29.9041267,4.00000025 30.4017578,8.87072248 30.4017578,8.87072248 C30.4017578,8.87072248 30.5972316,13.2242616 34.7314007,13.2242617 C38.8655698,13.2242618 38.814035,9.98230795 38.814035,9.98230795 L36.538778,9.98230795 C36.538778,9.98230795 36.4458056,11.4589523 34.784495,11.4589522 C33.1231845,11.4589522 32.366596,10.0859569 32.3665958,8.79199099 C32.3665957,7.49802505 32.7492081,5.65351298 34.6436425,5.65351295 C36.5380769,5.65351293 36.538778,7.36587673 36.538778,7.36587673 L38.8236795,7.42387619 Z M39.924812,0.5503359 L39.924812,13.0990651 L42.0113647,13.0990651 L42.0113647,6.80054607 C42.0113647,6.80054607 42.1047195,5.57501928 43.7197978,5.57501919 C45.3348761,5.57501911 45.3676935,6.78247322 45.3676935,6.78247322 L45.3676935,13.1271057 L47.4908486,13.1271057 L47.4908483,6.66666679 C47.4908483,6.66666679 47.4879376,3.77255386 44.1039551,3.77255388 C42.6712847,3.77255379 42.0113646,4.4214394 42.0113646,4.4214394 L42.0113646,0.550335897 L39.924812,0.5503359 Z M55.753578,6.47503435 C55.753578,3.78067637 52.9596727,3.55555571 51.8683664,3.55555556 C50.77706,3.5555554 48.4233315,3.94428076 48.4233316,6.37294659 C48.4233315,9.84856754 54.1637391,8.72153388 54.1637393,10.3797671 C54.1637391,12.1463521 50.2047806,11.8812322 50.2047807,9.90000418 C50.2047806,9.90000407 48.3535502,9.90000418 48.3535502,9.90000418 C48.3535502,9.90000418 48.2611873,13.2745074 52.4245959,13.2745074 C56.2566372,13.2745073 56.2566372,10.1912566 56.2566372,9.90000407 C56.2566372,6.8946459 50.4245399,7.72826597 50.4245399,6.08301078 C50.4245399,4.64833482 53.7067714,5.02931326 53.7067717,6.42209385 C53.7067716,6.42209392 55.7535783,6.42209392 55.753578,6.47503435 Z M57.2255639,0.5503359 L57.2255639,13.0990651 L59.3121166,13.0990651 L59.3121166,6.80054607 C59.3121166,6.80054607 59.4054714,5.57501928 61.0205497,5.57501919 C62.6356279,5.57501911 62.6684454,6.78247322 62.6684454,6.78247322 L62.6684454,13.1271057 L64.7916005,13.1271057 L64.7916002,6.66666679 C64.7916002,6.66666679 64.7886895,3.77255386 61.404707,3.77255388 C59.9720366,3.77255379 59.3121165,4.4214394 59.3121165,4.4214394 L59.3121165,0.550335897 L57.2255639,0.5503359 Z M72.2134757,10.0192244 C72.2134759,11.2648951 70.7876722,11.3756289 70.2201226,11.375629 C68.9750593,11.375629 68.158182,10.6104379 68.158182,8.92141367 C68.158182,8.92141367 74.3542914,8.92141367 74.3542914,8.92141367 C74.3542914,8.92141367 75.0473968,3.99999975 70.2201226,4 C65.3928485,4.00000025 65.8904796,8.87072248 65.8904796,8.87072248 C65.8904796,8.87072248 66.0859534,13.2242616 70.2201225,13.2242617 C74.3542917,13.2242618 74.3027568,9.98230795 74.3027568,9.98230795 C74.3027568,9.98230795 72.2134759,10.0192244 72.2134757,10.0192244 Z M68.093985,7.5739686 L72.3019433,7.5739686 C72.3019433,7.5739686 72.0928038,5.77777789 70.1979642,5.77777778 C68.3031246,5.77777766 68.093985,7.5739686 68.093985,7.5739686 Z M81.5292651,10.0192244 C81.5292653,11.2648951 80.1034617,11.3756289 79.5359121,11.375629 C78.2908487,11.375629 77.4739715,10.6104379 77.4739715,8.92141367 C77.4739715,8.92141367 83.6700809,8.92141367 83.6700809,8.92141367 C83.6700809,8.92141367 84.3631863,3.99999975 79.5359121,4 C74.708638,4.00000025 75.2062691,8.87072248 75.2062691,8.87072248 C75.2062691,8.87072248 75.4017429,13.2242616 79.535912,13.2242617 C83.6700811,13.2242618 83.6185463,9.98230795 83.6185463,9.98230795 C83.6185463,9.98230795 81.5292653,10.0192244 81.5292651,10.0192244 Z M77.4097744,7.5739686 L81.6177328,7.5739686 C81.6177328,7.5739686 81.4085933,5.77777789 79.5137537,5.77777778 C77.6189141,5.77777766 77.4097744,7.5739686 77.4097744,7.5739686 Z M85.2965195,1.43922479 L87.239505,1.43922479 L87.239505,3.90832143 L88.8141911,3.90832143 L88.8141911,5.58192257 L87.2343164,5.58192257 L87.2343164,10.4059623 C87.2343164,10.4059623 87.1538664,11.3272593 87.9840288,11.3272588 C88.8141912,11.3272583 89.0761699,11.3065902 89.0761699,11.3065902 L89.0761697,13.1501996 L87.2495344,13.1501996 C86.7562323,13.1501996 85.1709639,12.8258494 85.1709639,10.4807747 C85.1709639,8.13569992 85.1709639,5.62002071 85.1709639,5.62002071 L83.8421053,5.62002071 L83.8421053,3.90827099 L85.2906501,3.90827099 L85.2965195,1.43922479 Z M97.0092171,6.47503435 C97.0092171,3.78067637 94.2153118,3.55555571 93.1240054,3.55555556 C92.0326991,3.5555554 89.6789706,3.94428076 89.6789707,6.37294659 C89.6789706,9.84856754 95.4193782,8.72153388 95.4193784,10.3797671 C95.4193782,12.1463521 91.4604197,11.8812322 91.4604198,9.90000418 C91.4604196,9.90000407 89.6091893,9.90000418 89.6091893,9.90000418 C89.6091893,9.90000418 89.5168264,13.2745074 93.680235,13.2745074 C97.5122763,13.2745073 97.5122763,10.1912566 97.5122763,9.90000407 C97.5122763,6.8946459 91.680179,7.72826597 91.680179,6.08301078 C91.680179,4.64833482 94.9624105,5.02931326 94.9624108,6.42209385 C94.9624107,6.42209392 97.0092174,6.42209392 97.0092171,6.47503435 Z" id="Path-304"></path>
                </g>
                <g id="Group" sketch:type="MSShapeGroup">
                    <path d="M0,3.36875585 C0,1.50824337 1.50510699,0 3.3624236,0 L12.6075012,0 C14.4645165,0 15.9699248,1.50794146 15.9699248,3.36875585 L15.9699248,12.6312442 C15.9699248,14.4917566 14.4648178,16 12.6075012,16 L3.3624236,16 C1.50540832,16 0,14.4920585 0,12.6312442 L0,3.36875585 L0,3.36875585 Z" id="Shape" fill="#6C63FF"></path>
                    <path d="M11.059253,6.36889279 C11.059253,3.96544357 8.5670045,3.7646291 7.59352609,3.76462896 C6.62004768,3.76462882 4.52045026,4.11138366 4.52045039,6.27782741 C4.52045026,9.37818695 9.64106838,8.37283867 9.64106849,9.85203314 C9.64106838,11.4278807 6.10955703,11.1913856 6.1095571,9.42407 C6.10955698,9.4240699 4.4582032,9.42407 4.4582032,9.42407 C4.4582032,9.42407 4.37581269,12.4342295 8.08969977,12.4342294 C11.5079971,12.4342294 11.5079971,9.68387604 11.5079971,9.4240699 C11.5079971,6.74319906 6.305589,7.4868135 6.30558902,6.01919586 C6.305589,4.73942129 9.2334393,5.07926563 9.23343957,6.32166826 C9.23343947,6.32166832 11.0592532,6.32166832 11.059253,6.36889279 Z" id="Path-305" fill="#FFFFFF"></path>
                </g>
            </g>
        </g>
    </g>
</svg>