<?xml version="1.0" encoding="UTF-8" standalone="no"?>
<svg width="118px" height="16px" viewBox="0 0 118 16" version="1.1" xmlns="http://www.w3.org/2000/svg" xmlns:xlink="http://www.w3.org/1999/xlink" xmlns:sketch="http://www.bohemiancoding.com/sketch/ns">
    <!-- Generator: Sketch 3.4.2 (15855) - http://www.bohemiancoding.com/sketch -->
    <title>Path 304</title>
    <desc>Created with Sketch.</desc>
    <defs></defs>
    <g id="Page-1" stroke="none" stroke-width="1" fill="none" fill-rule="evenodd" sketch:type="MSPage">
        <g id="Group" sketch:type="MSLayerGroup" fill="#001030">
            <path d="M8.96788952,7.63055039 C8.96788952,4.34252031 4.87403232,4.0677968 4.2596148,4.06779661 C3.64519729,4.06779642 0.0847661767,4.54217313 0.0847663492,7.50596872 C0.0847661755,11.7474045 7.04125107,10.3720413 7.04125122,12.395648 C7.04125107,14.5514806 2.24360656,14.2279443 2.24360666,11.8101746 C2.2436065,11.8101745 0.000202019757,11.8101746 0.000202019757,11.8101746 C0.000202019757,11.8101746 -0.111727507,15.9282125 4.93367888,15.9282124 C9.57751932,15.9282123 9.57751932,12.1656013 9.57751932,11.8101745 C9.57751932,8.14261873 2.50992079,9.1599178 2.50992082,7.15214875 C2.50992079,5.40135775 6.48747699,5.86628059 6.48747736,7.56594503 C6.48747722,7.56594512 8.96788986,7.56594512 8.96788952,7.63055039 L8.96788952,7.63055039 Z M10.7517084,0.0522891313 L10.7517084,14.943641 L13.1221908,14.943641 L13.1221908,11.212164 L14.3872798,10.0288017 L17.4488063,15.0235717 L20.0522196,14.9857637 L16.3073129,8.48801716 L20.1674496,4.92273154 L16.825896,4.92273154 L13.0815731,8.46026293 L13.0815731,0 L10.7517084,0.0522891313 L10.7517084,0.0522891313 Z M27.5707723,11.6844772 C27.5707726,13.2046178 25.8429194,13.3397505 25.1551372,13.3397506 C23.6463133,13.3397506 22.6563846,12.4059581 22.6563846,10.344776 C22.6563846,10.344776 30.1651094,10.344776 30.1651094,10.344776 C30.1651094,10.344776 31.0050458,4.33898275 25.1551372,4.33898305 C19.3052287,4.33898335 19.9082806,10.2829156 19.9082806,10.2829156 C19.9082806,10.2829156 20.1451645,15.5957091 25.1551371,15.5957092 C30.1651097,15.5957093 30.1026574,11.6394267 30.1026574,11.6394267 C30.1026574,11.6394267 27.5707726,11.6844772 27.5707723,11.6844772 L27.5707723,11.6844772 Z M22.5785877,8.52529502 L27.6779814,8.52529502 C27.6779814,8.52529502 27.4245367,6.33333347 25.1282846,6.33333333 C22.8320325,6.33333319 22.5785877,8.52529502 22.5785877,8.52529502 L22.5785877,8.52529502 Z M32.1361011,1.3559322 L34.4906985,1.3559322 L34.4906985,4.36906709 L36.3989742,4.36906709 L36.3989742,6.4114278 L34.4844108,6.4114278 L34.4844108,12.2983915 C34.4844108,12.2983915 34.3869178,13.4226862 35.392946,13.4226856 C36.3989742,13.422685 36.7164518,13.3974629 36.7164518,13.3974629 L36.7164517,15.6472913 L34.5028526,15.6472913 C34.5028526,15.6472913 31.9839471,15.2514741 31.9839471,12.389688 C31.9839471,9.52790186 31.9839471,6.45792045 31.9839471,6.45792045 L30.3735763,6.45792045 L30.3735763,4.36900553 L32.1289883,4.36900553 L32.1361011,1.3559322 L32.1361011,1.3559322 Z M47.0482859,8.51727264 C47.0482859,8.51727264 47.0365978,4.33898335 42.089078,4.33898305 C36.2391695,4.33898335 36.8422213,10.2829156 36.8422213,10.2829156 C36.8422213,10.2829156 37.0791052,15.5957091 42.0890779,15.5957092 C47.0990505,15.5957093 47.0365982,11.6394267 47.0365982,11.6394267 L44.2793392,11.6394267 C44.2793392,11.6394267 44.166671,13.4414333 42.15342,13.4414332 C40.1401689,13.4414331 39.2233008,11.7659136 39.2233007,10.1868365 C39.2233005,8.60775938 39.6869675,6.3568294 41.9827285,6.35682937 C44.2784895,6.35682934 44.2793392,8.44649363 44.2793392,8.44649363 L47.0482859,8.51727264 L47.0482859,8.51727264 Z M48.3826879,0.129223471 L48.3826879,15.4429269 L50.9112665,15.4429269 L50.9112665,7.7565986 C50.9112665,7.7565986 51.0243981,6.26104047 52.9816228,6.26104037 C54.9388475,6.26104027 54.9786172,7.7345436 54.9786172,7.7345436 L54.9786172,15.4771459 L57.5515523,15.4771459 L57.5515523,7.04631545 C57.5515523,7.04631545 57.2647533,4.11696144 53.1638907,4.11696146 C51.7339774,4.11696134 50.9673763,5.22279533 50.9673763,5.22279533 L50.9673763,0 L48.3826879,0.129223471 L48.3826879,0.129223471 Z M67.8334932,7.63055039 C67.8334932,4.34252031 63.739636,4.0677968 63.1252184,4.06779661 C62.5108009,4.06779642 58.9503698,4.54217313 58.95037,7.50596872 C58.9503698,11.7474045 65.9068547,10.3720413 65.9068549,12.395648 C65.9068547,14.5514806 61.1092102,14.2279443 61.1092103,11.8101746 C61.1092101,11.8101745 58.8658057,11.8101746 58.8658057,11.8101746 C58.8658057,11.8101746 58.7538761,15.9282125 63.7992825,15.9282124 C68.443123,15.9282123 68.443123,12.1656013 68.443123,11.8101745 C68.443123,8.14261873 61.3755244,9.1599178 61.3755245,7.15214875 C61.3755244,5.40135775 65.3530806,5.86628059 65.353081,7.56594503 C65.3530809,7.56594512 67.8334935,7.56594512 67.8334932,7.63055039 L67.8334932,7.63055039 Z M69.3485194,0.129223471 L69.3485194,15.4429269 L71.877098,15.4429269 L71.877098,7.7565986 C71.877098,7.7565986 71.9902295,6.26104047 73.9474543,6.26104037 C75.904679,6.26104027 75.9444486,7.7345436 75.9444486,7.7345436 L75.9444486,15.4771459 L78.5173837,15.4771459 L78.5173837,7.04631545 C78.5173837,7.04631545 78.2305847,4.11696144 74.1297221,4.11696146 C72.6998088,4.11696134 71.9332077,5.22279533 71.9332077,5.22279533 L71.9332077,0 L69.3485194,0.129223471 L69.3485194,0.129223471 Z M87.5115468,11.6844772 C87.5115471,13.2046178 85.7836939,13.3397505 85.0959117,13.3397506 C83.5870878,13.3397506 82.5971591,12.4059581 82.5971591,10.344776 C82.5971591,10.344776 90.1058839,10.344776 90.1058839,10.344776 C90.1058839,10.344776 90.9458202,4.33898275 85.0959117,4.33898305 C79.2460032,4.33898335 79.8490551,10.2829156 79.8490551,10.2829156 C79.8490551,10.2829156 80.0859389,15.5957091 85.0959116,15.5957092 C90.1058842,15.5957093 90.0434319,11.6394267 90.0434319,11.6394267 C90.0434319,11.6394267 87.5115471,11.6844772 87.5115468,11.6844772 L87.5115468,11.6844772 Z M82.5193622,8.52529502 L87.6187559,8.52529502 C87.6187559,8.52529502 87.3653112,6.33333347 85.0690591,6.33333333 C82.772807,6.33333319 82.5193622,8.52529502 82.5193622,8.52529502 L82.5193622,8.52529502 Z M98.8008407,11.6844772 C98.8008409,13.2046178 97.0729877,13.3397505 96.3852056,13.3397506 C94.8763816,13.3397506 93.8864529,12.4059581 93.886453,10.344776 C93.8864529,10.344776 101.395178,10.344776 101.395178,10.344776 C101.395178,10.344776 102.235114,4.33898275 96.3852056,4.33898305 C90.5352971,4.33898335 91.1383489,10.2829156 91.1383489,10.2829156 C91.1383489,10.2829156 91.3752328,15.5957091 96.3852054,15.5957092 C101.395178,15.5957093 101.332726,11.6394267 101.332726,11.6394267 C101.332726,11.6394267 98.8008409,11.6844772 98.8008407,11.6844772 L98.8008407,11.6844772 Z M93.808656,8.52529502 L98.9080498,8.52529502 C98.9080498,8.52529502 98.6546051,6.33333347 96.358353,6.33333333 C94.0621009,6.33333319 93.808656,8.52529502 93.808656,8.52529502 L93.808656,8.52529502 Z M103.366169,1.3559322 L105.720767,1.3559322 L105.720767,4.36906709 L107.629043,4.36906709 L107.629043,6.4114278 L105.714479,6.4114278 L105.714479,12.2983915 C105.714479,12.2983915 105.616986,13.4226862 106.623014,13.4226856 C107.629043,13.422685 107.94652,13.3974629 107.94652,13.3974629 L107.94652,15.6472913 L105.732921,15.6472913 C105.732921,15.6472913 103.214015,15.2514741 103.214015,12.389688 C103.214015,9.52790186 103.214015,6.45792045 103.214015,6.45792045 L101.603645,6.45792045 L101.603645,4.36900553 L103.359057,4.36900553 L103.366169,1.3559322 L103.366169,1.3559322 Z M117.291352,7.63055039 C117.291352,4.34252031 113.197495,4.0677968 112.583077,4.06779661 C111.96866,4.06779642 108.408229,4.54217313 108.408229,7.50596872 C108.408229,11.7474045 115.364713,10.3720413 115.364714,12.395648 C115.364713,14.5514806 110.567069,14.2279443 110.567069,11.8101746 C110.567069,11.8101745 108.323664,11.8101746 108.323664,11.8101746 C108.323664,11.8101746 108.211735,15.9282125 113.257141,15.9282124 C117.900982,15.9282123 117.900982,12.1656013 117.900982,11.8101745 C117.900982,8.14261873 110.833383,9.1599178 110.833383,7.15214875 C110.833383,5.40135775 114.810939,5.86628059 114.81094,7.56594503 C114.81094,7.56594512 117.291352,7.56594512 117.291352,7.63055039 L117.291352,7.63055039 Z" id="Path-304" sketch:type="MSShapeGroup"></path>
        </g>
    </g>
</svg>