<?xml version="1.0" encoding="UTF-8"?>
<svg width="356px" height="420px" viewBox="0 0 356 420" version="1.1" xmlns="http://www.w3.org/2000/svg" xmlns:xlink="http://www.w3.org/1999/xlink">
    <!-- Generator: Sketch 49.3 (51167) - http://www.bohemiancoding.com/sketch -->
    <title>iphone8</title>
    <desc>Created with Sketch.</desc>
    <defs>
        <path d="M0.978504765,98.039128 L0.584587045,98.039128 C0.342256851,98.039128 0.145809414,97.8485279 0.145809414,97.6007214 L0.145809414,79.2198487 C0.145809414,78.9777235 0.342604067,78.7814421 0.584587045,78.7814421 L1.0206659,78.7814421 L1.0206659,74.4046954 L0.584587045,74.4046954 C0.342256851,74.4046954 0.145809414,74.2155392 0.145809414,73.96961 L0.145809414,55.7279864 C0.145809414,55.4876954 0.342604067,55.2929011 0.584587045,55.2929011 L1.01043545,55.2929011 C0.979103696,55.0728447 0.877495249,54.8753472 0.729047072,54.7238857 L0.729047072,43.3297932 L0.43877763,43.3297932 C0.196447436,43.3297932 3.10862447e-15,43.1349059 3.10862447e-15,42.8909787 L3.10862447e-15,33.5561985 C3.10862447e-15,33.3138479 0.196794652,33.117384 0.43877763,33.117384 L0.729047072,33.117384 L0.729047072,21.7378424 C0.729047072,8.96748686 7.29160986,0 22.6004592,0 L104.836969,0 C114.868201,-1.57906083e-15 126.416762,4.34597279 126.416762,21.7378424 L126.416762,54.7242147 C126.236473,54.908196 126.125144,55.1600468 126.125144,55.437825 L126.125144,74.1138799 C126.125144,74.3918523 126.236369,74.64388 126.416762,74.8279047 L126.416762,237.365567 C126.416762,244.598407 124.352933,259.10341 104.399541,259.10341 L22.6004592,259.10341 C2.87945115,259.10341 0.729047072,244.678952 0.729047072,237.365567 L0.729047072,98.4619103 C0.843748872,98.3448548 0.930538454,98.2003269 0.978504765,98.039128 Z M127,55.5854161 C127,55.3432908 127.196795,55.1751389 127.438778,55.2097273 L127.581888,55.2301832 C127.824218,55.2648213 128.020666,55.4806133 128.020666,55.7246651 L128.020666,73.8270397 C128.020666,74.0654964 127.823871,74.2869332 127.581888,74.3215216 L127.438778,74.3419775 C127.196447,74.3766156 127,74.2140953 127,73.9662888 L127,55.5854161 Z" id="path-1"></path>
        <filter x="-25.4%" y="-6.8%" width="150.8%" height="127.0%" filterUnits="objectBoundingBox" id="filter-2">
            <feMorphology radius="7.5" operator="erode" in="SourceAlpha" result="shadowSpreadOuter1"></feMorphology>
            <feOffset dx="0" dy="20" in="shadowSpreadOuter1" result="shadowOffsetOuter1"></feOffset>
            <feGaussianBlur stdDeviation="15" in="shadowOffsetOuter1" result="shadowBlurOuter1"></feGaussianBlur>
            <feColorMatrix values="0 0 0 0 0   0 0 0 0 0   0 0 0 0 0  0 0 0 0.153504303 0" type="matrix" in="shadowBlurOuter1"></feColorMatrix>
        </filter>
        <filter x="-13.3%" y="-0.8%" width="126.6%" height="115.1%" filterUnits="objectBoundingBox" id="filter-3">
            <feGaussianBlur stdDeviation="2" in="SourceAlpha" result="shadowBlurInner1"></feGaussianBlur>
            <feOffset dx="0" dy="0" in="shadowBlurInner1" result="shadowOffsetInner1"></feOffset>
            <feComposite in="shadowOffsetInner1" in2="SourceAlpha" operator="arithmetic" k2="-1" k3="1" result="shadowInnerInner1"></feComposite>
            <feColorMatrix values="0 0 0 0 0   0 0 0 0 0   0 0 0 0 0  0 0 0 0.05 0" type="matrix" in="shadowInnerInner1"></feColorMatrix>
        </filter>
        <rect id="path-4" x="52.6371986" y="16.0480715" width="22.0172216" height="1.89659027" rx="0.948295137"></rect>
    </defs>
    <g id="Page-1" stroke="none" stroke-width="1" fill="none" fill-rule="evenodd">
        <g id="Desktop-HD-Copy-53" transform="translate(-846.000000, -1031.000000)">
            <g id="Group-4" transform="translate(440.000000, 1031.000000)">
                <g id="Group-5-Copy" transform="translate(406.000000, 0.000000)">
                    <g id="Card">
                        <g id="iPhone-8">
                            <rect id="bounds" x="0" y="0" width="356" height="420"></rect>
                            <g transform="translate(114.000000, 48.000000)">
                                <g id="Device">
                                    <g id="Shape">
                                        <use fill="black" fill-opacity="1" filter="url(#filter-2)" xlink:href="#path-1"></use>
                                        <use fill="#FAFAFA" fill-rule="evenodd" xlink:href="#path-1"></use>
                                        <use fill="black" fill-opacity="1" filter="url(#filter-3)" xlink:href="#path-1"></use>
                                    </g>
                                    <path d="M63.5729047,250.76635 L63.5729047,250.76635 C68.4046037,250.76635 72.3214696,246.847277 72.3214696,242.012856 C72.3214696,237.178435 68.4046037,233.259363 63.5729047,233.259363 C58.7412057,233.259363 54.8243398,237.178435 54.8243398,242.012856 C54.8243398,246.847277 58.7412057,250.76635 63.5729047,250.76635 L63.5729047,250.76635 Z M63.5729047,251.933482 L63.5729047,251.933482 C58.0969792,251.933482 53.6578645,247.491867 53.6578645,242.012856 C53.6578645,236.533846 58.0969792,232.09223 63.5729047,232.09223 C69.0488302,232.09223 73.4879449,236.533846 73.4879449,242.012856 C73.4879449,247.491867 69.0488302,251.933482 63.5729047,251.933482 L63.5729047,251.933482 Z" id="Shape" fill="#DFDFDF" fill-rule="nonzero"></path>
                                    <mask id="mask-5" fill="white">
                                        <use xlink:href="#path-4"></use>
                                    </mask>
                                    <use id="Shape" fill="#DFDFDF" xlink:href="#path-4"></use>
                                </g>
                                <g id="Screen" transform="translate(8.000000, 31.000000)" fill="#FFFFFF">
                                    <rect x="0.894374282" y="0.950251537" width="109.357061" height="194.61934"></rect>
                                </g>
                            </g>
                        </g>
                    </g>
                </g>
            </g>
        </g>
    </g>
</svg>