<?xml version="1.0" encoding="UTF-8"?>
<svg width="356px" height="420px" viewBox="0 0 356 420" version="1.1" xmlns="http://www.w3.org/2000/svg" xmlns:xlink="http://www.w3.org/1999/xlink">
    <!-- Generator: Sketch 49.3 (51167) - http://www.bohemiancoding.com/sketch -->
    <title>surfacepro</title>
    <desc>Created with Sketch.</desc>
    <defs>
        <path d="M31.7548108,0.255319149 L42.2502973,0.255319149 L42.3194885,0.184571611 C42.4191823,0.0826355251 42.6129857,0 42.7655176,0 L63.2344824,0 C63.3811237,0 63.578125,0.0798822188 63.6805115,0.184571611 L63.7497027,0.255319149 L255.548644,0.255319149 C258.559345,0.255319149 261,2.70070714 261,5.71017076 L261,173.800468 C261,176.813099 258.562394,179.255319 255.548644,179.255319 L5.45135593,179.255319 C2.44065519,179.255319 0,176.809931 0,173.800468 L0,5.71017076 C0,2.6975394 2.43760572,0.255319149 5.45135593,0.255319149 L20.2451892,0.255319149 L20.3129684,0.184571611 C20.4106275,0.0826355251 20.6135603,0 20.7406786,0 L31.2593214,0 C31.3978801,0 31.5867347,0.0798822188 31.6870316,0.184571611 L31.7548108,0.255319149 Z" id="path-1"></path>
        <filter x="-12.5%" y="-9.8%" width="124.9%" height="139.1%" filterUnits="objectBoundingBox" id="filter-2">
            <feMorphology radius="7.5" operator="erode" in="SourceAlpha" result="shadowSpreadOuter1"></feMorphology>
            <feOffset dx="0" dy="20" in="shadowSpreadOuter1" result="shadowOffsetOuter1"></feOffset>
            <feGaussianBlur stdDeviation="15" in="shadowOffsetOuter1" result="shadowBlurOuter1"></feGaussianBlur>
            <feColorMatrix values="0 0 0 0 0   0 0 0 0 0   0 0 0 0 0  0 0 0 0.153504303 0" type="matrix" in="shadowBlurOuter1"></feColorMatrix>
        </filter>
        <filter x="-6.5%" y="-1.1%" width="113.0%" height="121.8%" filterUnits="objectBoundingBox" id="filter-3">
            <feGaussianBlur stdDeviation="2" in="SourceAlpha" result="shadowBlurInner1"></feGaussianBlur>
            <feOffset dx="0" dy="0" in="shadowBlurInner1" result="shadowOffsetInner1"></feOffset>
            <feComposite in="shadowOffsetInner1" in2="SourceAlpha" operator="arithmetic" k2="-1" k3="1" result="shadowInnerInner1"></feComposite>
            <feColorMatrix values="0 0 0 0 0   0 0 0 0 0   0 0 0 0 0  0 0 0 0.05 0" type="matrix" in="shadowInnerInner1"></feColorMatrix>
        </filter>
    </defs>
    <g id="Page-1" stroke="none" stroke-width="1" fill="none" fill-rule="evenodd">
        <g id="Desktop-HD-Copy-53" transform="translate(-1252.000000, -1501.000000)">
            <g id="Group-4" transform="translate(440.000000, 1031.000000)">
                <g id="Group-5" transform="translate(812.000000, 470.000000)">
                    <g id="Card">
                        <g id="Surface-Pro">
                            <rect id="bounds" x="0" y="0" width="356" height="420"></rect>
                            <g transform="translate(49.000000, 80.000000)">
                                <g id="Device">
                                    <g id="Shape">
                                        <use fill="black" fill-opacity="1" filter="url(#filter-2)" xlink:href="#path-1"></use>
                                        <use fill="#FAFAFA" fill-rule="evenodd" xlink:href="#path-1"></use>
                                        <use fill="black" fill-opacity="1" filter="url(#filter-3)" xlink:href="#path-1"></use>
                                    </g>
                                    <circle id="Shape" fill="#DFDFDF" cx="130.125979" cy="6.69148936" r="1.5"></circle>
                                </g>
                                <g id="Screen" transform="translate(15.000000, 13.000000)" fill="#FFFFFF" fill-rule="nonzero">
                                    <polygon points="0 0 0 0 0 153 231 153 231 0"></polygon>
                                </g>
                            </g>
                        </g>
                    </g>
                </g>
            </g>
        </g>
    </g>
</svg>