<?xml version="1.0" standalone="no"?>
<!DOCTYPE svg PUBLIC "-//W3C//DTD SVG 20010904//EN"
 "http://www.w3.org/TR/2001/REC-SVG-20010904/DTD/svg10.dtd">
<svg version="1.0" xmlns="http://www.w3.org/2000/svg"
 width="266.000000pt" height="266.000000pt" viewBox="0 0 266.000000 266.000000"
 preserveAspectRatio="xMidYMid meet">
<metadata>
Created by potrace 1.11, written by Peter Selinger 2001-2013
</metadata>
<g transform="translate(0.000000,266.000000) scale(0.100000,-0.100000)"
fill="#000000" stroke="none">
<path d="M485 2634 c-232 -55 -408 -231 -459 -461 -14 -63 -16 -171 -16 -835
0 -478 4 -787 11 -828 14 -92 84 -232 151 -302 92 -96 168 -141 302 -178 66
-19 110 -20 850 -20 664 0 791 3 846 16 175 40 332 166 408 325 22 46 46 111
53 144 9 45 12 253 12 820 0 418 -2 783 -6 810 -22 184 -158 374 -328 458
-137 67 -126 67 -989 66 -632 -1 -786 -3 -835 -15z m1696 -261 c71 -35 137
-95 176 -160 53 -91 53 -89 53 -896 -1 -504 -4 -757 -11 -775 -51 -130 -115
-204 -217 -254 l-67 -33 -759 -3 c-674 -2 -765 -1 -815 13 -115 34 -200 106
-254 215 l-32 65 -3 750 c-4 803 -3 817 46 909 51 93 161 177 261 197 20 4
378 6 796 6 l760 -2 66 -32z"/>
<path d="M1145 1973 c-213 -36 -342 -164 -349 -345 -3 -71 10 -143 33 -187 19
-34 82 -102 106 -112 11 -5 34 -17 50 -27 39 -24 172 -68 265 -87 78 -16 203
-51 240 -67 66 -28 85 -53 85 -111 0 -44 -4 -52 -41 -87 -59 -54 -145 -75
-250 -58 -121 18 -227 98 -240 180 -6 36 -9 38 -43 39 -46 1 -192 1 -208 0
-16 -1 -6 -81 20 -151 56 -152 186 -258 362 -294 69 -15 270 -16 324 -3 186
47 300 148 345 308 37 128 22 245 -40 311 -76 79 -170 120 -424 185 -249 64
-309 97 -310 174 0 87 103 135 245 115 94 -13 190 -82 199 -143 3 -16 17 -19
135 -23 72 -3 135 -4 140 -2 13 5 2 89 -20 148 -69 184 -337 285 -624 237z"/>
</g>
</svg>
