<?xml version="1.0" standalone="no"?>
<!DOCTYPE svg PUBLIC "-//W3C//DTD SVG 20010904//EN"
 "http://www.w3.org/TR/2001/REC-SVG-20010904/DTD/svg10.dtd">
<svg version="1.0" xmlns="http://www.w3.org/2000/svg"
 width="400.000000pt" height="400.000000pt" viewBox="0 0 400.000000 400.000000"
 preserveAspectRatio="xMidYMid meet">
<metadata>
Created by potrace 1.11, written by Peter Selinger 2001-2013
</metadata>
<g transform="translate(0.000000,400.000000) scale(0.100000,-0.100000)"
fill="#000000" stroke="none">
<path d="M383 3986 c-181 -44 -334 -202 -372 -384 -16 -75 -16 -3129 0 -3204
39 -187 200 -348 387 -387 75 -16 3129 -16 3204 0 187 39 348 200 387 387 16
75 16 3129 0 3204 -39 187 -200 348 -387 387 -81 17 -3149 14 -3219 -3z m1683
-937 c384 -42 593 -226 633 -555 l7 -64 -168 0 -168 0 0 25 c0 84 -83 201
-177 248 -174 89 -475 81 -619 -16 -65 -43 -94 -95 -94 -170 0 -74 17 -113 68
-159 82 -74 161 -103 502 -183 129 -30 271 -67 315 -81 314 -103 461 -307 425
-591 -13 -105 -35 -165 -85 -244 -129 -200 -400 -309 -768 -309 -505 0 -806
218 -852 618 l-7 62 166 0 165 0 6 -37 c18 -105 50 -168 114 -226 89 -80 199
-116 386 -124 272 -11 454 57 511 193 19 45 18 155 -2 202 -21 51 -58 88 -129
127 -94 53 -210 87 -549 161 -236 51 -372 113 -485 220 -79 74 -114 140 -131
249 -44 278 119 517 420 613 57 18 121 32 210 46 54 8 216 5 306 -5z"/>
</g>
</svg>
