<?xml version="1.0" standalone="no"?>
<!DOCTYPE svg PUBLIC "-//W3C//DTD SVG 20010904//EN"
 "http://www.w3.org/TR/2001/REC-SVG-20010904/DTD/svg10.dtd">
<svg version="1.0" xmlns="http://www.w3.org/2000/svg"
 width="266.000000pt" height="266.000000pt" viewBox="0 0 266.000000 266.000000"
 preserveAspectRatio="xMidYMid meet">
<metadata>
Created by potrace 1.11, written by Peter Selinger 2001-2013
</metadata>
<g transform="translate(0.000000,266.000000) scale(0.100000,-0.100000)"
fill="#000000" stroke="none">
<path d="M443 2635 c-148 -32 -294 -145 -366 -282 -68 -129 -67 -115 -67
-1029 0 -785 1 -824 20 -898 11 -43 32 -101 47 -129 39 -74 155 -188 228 -224
130 -66 82 -63 1025 -63 943 0 895 -3 1025 63 73 36 189 150 228 224 15 28 36
86 47 129 19 74 20 113 20 898 0 914 1 900 -67 1029 -73 139 -219 250 -370
282 -97 21 -1676 20 -1770 0z m1051 -635 c146 -37 256 -116 302 -216 21 -45
44 -134 44 -170 0 -11 -30 -14 -150 -14 l-149 0 -10 38 c-37 135 -322 201
-436 101 -58 -51 -56 -122 4 -167 46 -34 96 -51 298 -102 329 -84 434 -142
493 -272 55 -122 0 -338 -117 -455 -102 -101 -228 -144 -428 -144 -207 0 -349
47 -454 152 -77 78 -141 215 -141 307 l0 32 135 0 c123 0 135 -2 135 -18 0
-38 50 -119 93 -149 73 -52 130 -68 242 -68 88 0 107 3 150 26 61 31 95 78 95
131 0 89 -43 113 -327 183 -255 64 -353 105 -425 183 -140 150 -113 416 57
544 133 101 376 133 589 78z"/>
</g>
</svg>
