<?xml version="1.0" standalone="no"?>
<!DOCTYPE svg PUBLIC "-//W3C//DTD SVG 20010904//EN"
 "http://www.w3.org/TR/2001/REC-SVG-20010904/DTD/svg10.dtd">
<svg version="1.0" xmlns="http://www.w3.org/2000/svg"
 width="266.000000pt" height="266.000000pt" viewBox="0 0 266.000000 266.000000"
 preserveAspectRatio="xMidYMid meet">
<metadata>
Created by potrace 1.11, written by Peter Selinger 2001-2013
</metadata>
<g transform="translate(0.000000,266.000000) scale(0.100000,-0.100000)"
fill="#000000" stroke="none">
<path d="M454 2645 c-208 -45 -395 -234 -440 -444 -20 -97 -20 -1645 0 -1742
45 -213 232 -400 445 -445 97 -20 1645 -20 1742 0 213 45 400 232 445 445 20
97 20 1645 0 1742 -45 213 -232 400 -445 445 -94 20 -1655 19 -1747 -1z m1051
-514 c97 -25 205 -77 261 -125 80 -69 144 -203 144 -302 l0 -44 -173 0 -174 0
-12 40 c-16 52 -49 90 -109 123 -151 82 -375 68 -433 -27 -29 -48 -25 -108 11
-149 44 -50 125 -82 378 -147 373 -95 494 -157 567 -291 37 -69 46 -187 21
-293 -41 -172 -139 -298 -290 -371 -126 -61 -229 -79 -406 -72 -273 11 -454
96 -569 268 -45 68 -87 187 -92 264 l-4 50 160 0 159 0 8 -43 c25 -149 210
-253 425 -240 173 11 288 115 254 230 -23 76 -91 107 -379 174 -359 83 -499
160 -575 313 -31 63 -32 70 -32 191 0 126 0 126 38 202 68 138 190 221 387
264 95 20 330 12 435 -15z"/>
</g>
</svg>
