<?xml version="1.0" encoding="UTF-8" standalone="no"?>
<svg width="149px" height="20px" viewBox="0 0 149 20" version="1.1" xmlns="http://www.w3.org/2000/svg" xmlns:xlink="http://www.w3.org/1999/xlink" xmlns:sketch="http://www.bohemiancoding.com/sketch/ns">
    <!-- Generator: Sketch 3.5.2 (25235) - http://www.bohemiancoding.com/sketch -->
    <title>Group 2 Copy</title>
    <desc>Created with Sketch.</desc>
    <defs></defs>
    <g id="Logo" stroke="none" stroke-width="1" fill="none" fill-rule="evenodd" sketch:type="MSPage">
        <g id="Artboard-2" sketch:type="MSArtboardGroup" transform="translate(-982.000000, -785.000000)">
            <g id="Group-2-Copy" sketch:type="MSLayerGroup" transform="translate(982.000000, 785.000000)">
                <g id="Group" transform="translate(25.721868, 0.840336)" fill="#29203F" sketch:type="MSShapeGroup">
                    <path d="M9.32797632,8.161808 C9.32797632,4.76555845 5.8062469,4.48179291 4.43065071,4.48179272 C3.05505451,4.48179252 0.0881697848,4.97178247 0.0881699642,8.03312596 C0.0881697835,12.4141608 7.32397774,10.9935301 7.3239779,13.0837401 C7.32397774,15.3105279 2.33369388,14.9763431 2.33369398,12.4789969 C2.33369381,12.4789967 0.000210131435,12.4789969 0.000210131435,12.4789969 C0.000210131435,12.4789969 -0.116213691,16.7325724 5.13178041,16.7325723 C9.96208453,16.7325722 9.96208453,12.8461218 9.96208453,12.4789967 C9.96208453,8.69073013 2.6107014,9.74151173 2.61070142,7.66766065 C2.6107014,5.85924557 6.74796802,6.33947049 6.74796841,8.09507628 C6.74796826,8.09507637 9.32797667,8.09507637 9.32797632,8.161808 Z M11.1834207,0.0540101321 L11.1834207,16.2758197 L13.6490848,16.2758197 L13.6068363,11.9039979 L14.3888767,11.149703 L17.6812286,16.3583814 L20.8009817,16.3583814 L16.3230241,9.66216656 L20.6976457,5.08475422 L17.2219191,5.08475422 L13.6068363,8.73871696 L13.6068363,1.91846539e-13 L11.1834207,0.0540101321 Z M28.6778189,12.6292744 C28.6778191,14.1994476 26.8805876,14.339028 26.165189,14.3390282 C24.5957814,14.3390282 23.5661042,13.3745016 23.5661042,11.2454794 C23.5661042,11.2454794 31.3763261,11.2454794 31.3763261,11.2454794 C31.3763261,11.2454794 32.2499884,5.04201649 26.165189,5.04201681 C20.0803897,5.04201712 20.7076558,11.181583 20.7076558,11.181583 C20.7076558,11.181583 20.9540513,16.6692373 26.1651889,16.6692374 C31.3763264,16.6692376 31.3113665,12.5827411 31.3113665,12.5827411 C31.3113665,12.5827411 28.6778191,12.6292744 28.6778189,12.6292744 Z M23.4851835,9.54701925 L28.7893328,9.54701925 C28.7893328,9.54701925 28.5257115,7.28291331 26.1372582,7.28291317 C23.7488049,7.28291302 23.4851835,9.54701925 23.4851835,9.54701925 Z M33.4264589,1.68067227 L35.8756002,1.68067227 L35.8756002,4.79297896 L37.8604987,4.79297896 L37.8604987,6.90256023 L35.86906,6.90256023 L35.86906,12.9832825 C35.86906,12.9832825 35.7676524,14.1445813 36.8140756,14.1445807 C37.8604987,14.1445801 38.190724,14.1185278 38.190724,14.1185278 L38.1907238,16.4424052 L35.8882423,16.4424052 C35.2664329,16.4424052 33.2681954,16.0335605 33.2681954,13.0775839 C33.2681955,10.1216073 33.2681954,6.95058309 33.2681954,6.95058309 L31.5931636,6.95058309 L31.5931636,4.79291538 L33.4190605,4.79291538 L33.4264589,1.68067227 Z M48.9374112,9.35782713 C48.9374112,9.35782713 48.9252537,5.04201712 43.7790767,5.04201681 C37.6942774,5.04201712 38.3215435,11.181583 38.3215435,11.181583 C38.3215435,11.181583 38.567939,16.6692373 43.7790765,16.6692374 C48.9902141,16.6692376 48.9252542,12.5827411 48.9252542,12.5827411 L46.0572832,12.5827411 C46.0572832,12.5827411 45.940091,14.4440575 43.8460022,14.4440574 C41.7519133,14.4440573 40.7982302,12.7133911 40.7982301,11.0823416 C40.7982299,9.45129208 41.2805145,7.12627686 43.6684569,7.12627683 C46.0563994,7.1262768 46.0572832,9.28471856 46.0572832,9.28471856 L48.9374112,9.35782713 Z M50.3253933,0.693700714 L50.3253933,16.5114266 L52.9555017,16.5114266 L52.9555017,8.5721169 C52.9555017,8.5721169 53.0731758,7.02733522 55.1089888,7.02733512 C57.1448018,7.02733501 57.1861683,8.549336 57.1861683,8.549336 L57.1861683,16.5467718 L59.8624142,16.5467718 L59.8624139,8.40336149 C59.8624139,8.40336149 59.8587449,4.75532 55.5932207,4.75532002 C53.7873337,4.7553199 52.9555016,5.57324294 52.9555016,5.57324294 L52.9555016,0.693700711 L50.3253933,0.693700714 Z M70.2776193,8.161808 C70.2776193,4.76555845 66.7558899,4.48179291 65.3802937,4.48179272 C64.0046975,4.48179252 61.0378128,4.97178247 61.037813,8.03312596 C61.0378128,12.4141608 68.2736208,10.9935301 68.2736209,13.0837401 C68.2736208,15.3105279 63.2833369,14.9763431 63.283337,12.4789969 C63.2833368,12.4789967 60.9498531,12.4789969 60.9498531,12.4789969 C60.9498531,12.4789969 60.8334293,16.7325724 66.0814234,16.7325723 C70.9117275,16.7325722 70.9117275,12.8461218 70.9117275,12.4789967 C70.9117275,8.69073013 63.5603444,9.74151173 63.5603444,7.66766065 C63.5603444,5.85924557 67.697611,6.33947049 67.6976114,8.09507628 C67.6976113,8.09507637 70.2776197,8.09507637 70.2776193,8.161808 Z M72.1330638,0.693700714 L72.1330638,16.5114266 L74.7631721,16.5114266 L74.7631721,8.5721169 C74.7631721,8.5721169 74.8808463,7.02733522 76.9166592,7.02733512 C78.9524722,7.02733501 78.9938387,8.549336 78.9938387,8.549336 L78.9938387,16.5467718 L81.6700846,16.5467718 L81.6700843,8.40336149 C81.6700843,8.40336149 81.6664153,4.75532 77.4008912,4.75532002 C75.5950042,4.7553199 74.7631721,5.57324294 74.7631721,5.57324294 L74.7631721,0.693700711 L72.1330638,0.693700714 Z M91.0253895,12.6292744 C91.0253898,14.1994476 89.2281582,14.339028 88.5127596,14.3390282 C86.943352,14.3390282 85.9136748,13.3745016 85.9136749,11.2454794 C85.9136748,11.2454794 93.7238967,11.2454794 93.7238967,11.2454794 C93.7238967,11.2454794 94.597559,5.04201649 88.5127596,5.04201681 C82.4279603,5.04201712 83.0552264,11.181583 83.0552264,11.181583 C83.0552264,11.181583 83.3016219,16.6692373 88.5127595,16.6692374 C93.723897,16.6692376 93.6589371,12.5827411 93.6589371,12.5827411 C93.6589371,12.5827411 91.0253898,12.6292744 91.0253895,12.6292744 Z M85.8327542,9.54701925 L91.1369034,9.54701925 C91.1369034,9.54701925 90.8732821,7.28291331 88.4848288,7.28291317 C86.0963755,7.28291302 85.8327542,9.54701925 85.8327542,9.54701925 Z M102.767981,12.6292744 C102.767982,14.1994476 100.97075,14.339028 100.255351,14.3390282 C98.6859438,14.3390282 97.6562666,13.3745016 97.6562666,11.2454794 C97.6562666,11.2454794 105.466489,11.2454794 105.466489,11.2454794 C105.466489,11.2454794 106.340151,5.04201649 100.255351,5.04201681 C94.1705521,5.04201712 94.7978182,11.181583 94.7978182,11.181583 C94.7978182,11.181583 95.0442137,16.6692373 100.255351,16.6692374 C105.466489,16.6692376 105.401529,12.5827411 105.401529,12.5827411 C105.401529,12.5827411 102.767982,12.6292744 102.767981,12.6292744 Z M97.5753459,9.54701925 L102.879495,9.54701925 C102.879495,9.54701925 102.615874,7.28291331 100.227421,7.28291317 C97.8389673,7.28291302 97.5753459,9.54701925 97.5753459,9.54701925 Z M107.516621,1.81414889 L109.965763,1.81414889 L109.965763,4.92645558 L111.950661,4.92645558 L111.950661,7.03603685 L109.959222,7.03603685 L109.959222,13.1167592 C109.959222,13.1167592 109.857815,14.2780579 110.904238,14.2780573 C111.950661,14.2780567 112.280886,14.2520045 112.280886,14.2520045 L112.280886,16.5758818 L109.978405,16.5758818 C109.356595,16.5758818 107.358358,16.1670371 107.358358,13.2110605 C107.358358,10.2550839 107.358358,7.08405972 107.358358,7.08405972 L105.683326,7.08405972 L105.683326,4.926392 L107.509223,4.926392 L107.516621,1.81414889 Z M122.280526,8.161808 C122.280526,4.76555845 118.758796,4.48179291 117.3832,4.48179272 C116.007604,4.48179252 113.040719,4.97178247 113.040719,8.03312596 C113.040719,12.4141608 120.276527,10.9935301 120.276527,13.0837401 C120.276527,15.3105279 115.286243,14.9763431 115.286243,12.4789969 C115.286243,12.4789967 112.95276,12.4789969 112.95276,12.4789969 C112.95276,12.4789969 112.836336,16.7325724 118.08433,16.7325723 C122.914634,16.7325722 122.914634,12.8461218 122.914634,12.4789967 C122.914634,8.69073013 115.563251,9.74151173 115.563251,7.66766065 C115.563251,5.85924557 119.700517,6.33947049 119.700518,8.09507628 C119.700518,8.09507637 122.280526,8.09507637 122.280526,8.161808 Z" id="Path-304"></path>
                </g>
                <g id="Group" fill="#6C63FF" sketch:type="MSShapeGroup">
                    <path d="M13.996952,7.92531207 C13.996952,4.87599104 10.8290142,4.6212123 9.59160984,4.62121212 C8.35420551,4.62121194 5.68537289,5.06114918 5.68537305,7.80977496 C5.68537289,11.743285 12.1942744,10.4677724 12.1942745,12.3444664 C12.1942744,14.3437868 7.70531249,14.0437391 7.70531258,11.801498 C7.70531243,11.8014979 5.60624963,11.801498 5.60624963,11.801498 C5.60624963,11.801498 5.5015217,15.6205688 10.2223043,15.6205687 C14.5673579,15.6205686 14.5673579,12.131121 14.5673579,11.8014979 C14.5673579,8.40020455 7.95449194,9.34364831 7.95449197,7.48164211 C7.95449194,5.8579575 11.6761304,6.28912722 11.6761307,7.86539703 C11.6761306,7.86539711 13.9969523,7.86539711 13.996952,7.92531207 Z" id="Path-305"></path>
                    <path d="M1.53643641,4.60744345 L1.53643641,4.60744345 L1.53643641,15.3662299 C1.53643641,17.0626132 2.91116709,18.4372369 4.60744345,18.4372369 L15.3662299,18.4372369 C17.0626132,18.4372369 18.4372369,17.0625063 18.4372369,15.3662299 L18.4372369,4.60744345 C18.4372369,2.91106013 17.0625063,1.53643641 15.3662299,1.53643641 L4.60744345,1.53643641 C2.91106013,1.53643641 1.53643641,2.91116709 1.53643641,4.60744345 L1.53643641,4.60744345 Z M0,4.60744345 C0,2.06282269 2.06230374,0 4.60744345,0 L15.3662299,0 C17.9108506,0 19.9736733,2.06230374 19.9736733,4.60744345 L19.9736733,15.3662299 C19.9736733,17.9108506 17.9113696,19.9736733 15.3662299,19.9736733 L4.60744345,19.9736733 C2.06282269,19.9736733 0,17.9113696 0,15.3662299 L0,4.60744345 L0,4.60744345 Z" id="Shape"></path>
                </g>
            </g>
        </g>
    </g>
</svg>