<?xml version="1.0" encoding="UTF-8" standalone="no"?>
<svg width="122px" height="26px" viewBox="0 0 122 26" version="1.1" xmlns="http://www.w3.org/2000/svg" xmlns:xlink="http://www.w3.org/1999/xlink" xmlns:sketch="http://www.bohemiancoding.com/sketch/ns">
    <!-- Generator: Sketch 3.5.2 (25235) - http://www.bohemiancoding.com/sketch -->
    <title>Group 2</title>
    <desc>Created with Sketch.</desc>
    <defs></defs>
    <g id="Page-1" stroke="none" stroke-width="1" fill="none" fill-rule="evenodd" sketch:type="MSPage">
        <g id="Desktop-HD" sketch:type="MSArtboardGroup" transform="translate(-476.000000, -97.000000)">
            <g id="Hero" sketch:type="MSLayerGroup" transform="translate(476.000000, 97.000000)">
                <g id="Group-2">
                    <g id="Group" fill="#6C63FF" sketch:type="MSShapeGroup">
                        <path d="M9.49144968,1.3135422 L8.73700545,2.37111784 L9.0158774,1.5 L9.0158774,4.86255131 C9.0158774,6.52041741 10.373736,7.875 12.0445822,7.875 L15.5413058,7.875 L14.4296144,8.36795377 L15.4487164,7.24295377 L15.5098292,9.3206468 L7.5257247,1.48619612 L7.66299474,1.29377176 L9.32273803,1.14799288 L9.49144968,1.3135422 L9.49144968,1.3135422 Z M7.5158774,1.5 L8.40759167,0.25 L16.5604078,8.25 L15.5413058,9.375 L12.0445822,9.375 C9.54344759,9.375 7.5158774,7.34699182 7.5158774,4.86255131 L7.5158774,1.5 L7.5158774,1.5 Z" id="Shape"></path>
                        <path d="M1.5,21.5008282 L1.5,21.5008282 C1.5,23.1604434 2.83998368,24.5 4.50725938,24.5 L12.5626995,24.5 C14.2272363,24.5 15.5699588,23.1617308 15.5699588,21.5025867 L15.5699588,9.3965976 C15.5699588,9.39892549 15.5710311,9.39999969 15.5781189,9.39999969 L12.0290965,9.39999986 C9.54500632,9.39999998 7.53846432,7.38431381 7.53846417,4.89081255 L7.53846398,1.5045247 C7.53846398,1.50491751 7.53356058,1.5 7.54594541,1.5 L4.4927522,1.5 C2.84204258,1.5 1.5,2.84482551 1.5,4.49917184 L1.5,21.5008282 Z M0,21.5008282 L0,21.5008282 L0,4.49917184 C0,2.01854156 2.01147368,0 4.4927522,0 L7.54594541,0 C8.35911008,0 9.03846393,0.673598613 9.03846398,1.50452461 L9.03846417,4.89081246 C9.03846427,6.55987269 10.377416,7.89999994 12.0290965,7.89999986 L15.5781189,7.89999969 C16.3990123,7.89999965 17.0699588,8.57004936 17.0699588,9.3965976 L17.0699588,21.5025867 C17.0699588,23.9938268 15.0519901,26 12.5626995,26 L4.50725938,26 C2.00833707,26 0,23.9856522 0,21.5008282 L0,21.5008282 Z" id="Shape"></path>
                        <rect id="Rectangle-10835" x="7.18868803" y="20.825" width="2.69258279" height="2.65" rx="20"></rect>
                    </g>
                    <text id="sketchsheets" sketch:type="MSTextLayer" font-family="Helvetica Neue" font-size="16.5" font-weight="normal" fill="#202022">
                        <tspan x="24.0987654" y="20">sketchsheets</tspan>
                    </text>
                </g>
            </g>
        </g>
    </g>
</svg>