<?xml version="1.0" encoding="UTF-8" standalone="no"?>
<svg width="118px" height="17px" viewBox="0 0 118 17" version="1.1" xmlns="http://www.w3.org/2000/svg" xmlns:xlink="http://www.w3.org/1999/xlink" xmlns:sketch="http://www.bohemiancoding.com/sketch/ns">
    <!-- Generator: Sketch 3.5.2 (25235) - http://www.bohemiancoding.com/sketch -->
    <title>Group</title>
    <desc>Created with Sketch.</desc>
    <defs></defs>
    <g id="Page-1" stroke="none" stroke-width="1" fill="none" fill-rule="evenodd" sketch:type="MSPage">
        <g id="Desktop-HD" sketch:type="MSArtboardGroup" transform="translate(-434.000000, -110.000000)" fill="#001030">
            <g id="Group" sketch:type="MSLayerGroup" transform="translate(434.000000, 110.000000)">
                <path d="M8.95500536,7.82073694 C8.95500536,4.56641212 5.57408921,4.29450477 4.25349502,4.29450458 C2.93290083,4.29450439 0.0846443932,4.76401832 0.0846445654,7.69743235 C0.0846443919,11.8953896 7.03113491,10.5341252 7.03113506,12.5369881 C7.03113491,14.6707214 2.24038317,14.3505017 2.24038327,11.9575162 C2.24038311,11.9575161 0.000201729515,11.9575162 0.000201729515,11.9575162 C0.000201729515,11.9575162 -0.111566988,16.0333405 4.92659066,16.0333405 C9.56375931,16.0333404 9.56375931,12.3092995 9.56375931,11.9575161 C9.56375931,8.32755612 2.50631479,9.33442696 2.50631481,7.34723935 C2.50631479,5.61439552 6.47815643,6.07455248 6.4781568,7.75679385 C6.47815666,7.75679394 8.9550057,7.75679394 8.95500536,7.82073694 L8.95500536,7.82073694 Z M10.7362615,0.0517531208 L10.7362615,15.5956749 L13.1033381,15.5956749 L13.0627789,11.4065457 L13.8135501,10.6837718 L16.9742602,15.6747865 L19.9692727,15.6747865 L15.6703623,9.25839752 L19.8700685,4.87226912 L16.5333157,4.87226912 L13.0627788,8.37353765 L13.0627788,0 L10.7362615,0.0517531208 L10.7362615,0.0517531208 Z M27.5311614,12.1015139 C27.5311617,13.6060717 25.8057909,13.7398191 25.1189969,13.7398193 C23.6123406,13.7398193 22.6238342,12.815599 22.6238342,10.7755458 C22.6238342,10.7755458 30.1217712,10.7755458 30.1217712,10.7755458 C30.1217712,10.7755458 30.9605008,4.83131736 25.1189969,4.83131765 C19.2774929,4.83131795 19.8796784,10.7143195 19.8796784,10.7143195 C19.8796784,10.7143195 20.1162219,15.9726521 25.1189967,15.9726523 C30.1217715,15.9726524 30.059409,12.0569252 30.059409,12.0569252 C30.059409,12.0569252 27.5311617,12.1015139 27.5311614,12.1015139 L27.5311614,12.1015139 Z M22.5461491,9.14806206 L27.6382165,9.14806206 C27.6382165,9.14806206 27.3851359,6.97857008 25.0921828,6.97856995 C22.7992298,6.97856981 22.5461491,9.14806206 22.5461491,9.14806206 L22.5461491,9.14806206 Z M32.0899312,1.61043922 L34.4411457,1.61043922 L34.4411457,4.59268677 L36.3466798,4.59268677 L36.3466798,6.61411145 L34.4348671,6.61411145 L34.4348671,12.4407285 C34.4348671,12.4407285 34.3375142,13.5534981 35.342097,13.5534976 C36.3466799,13.553497 36.6637013,13.5285334 36.6637013,13.5285334 L36.6637012,15.755299 L34.4532824,15.755299 C33.8563355,15.755299 31.9379958,15.3635394 31.9379958,12.5310891 C31.9379958,9.69863885 31.9379958,6.6601275 31.9379958,6.6601275 L30.3299386,6.6601275 L30.3299386,4.59262584 L32.0828286,4.59262584 L32.0899312,1.61043922 L32.0899312,1.61043922 Z M46.9806916,8.96677603 C46.9806916,8.96677603 46.9690203,4.83131795 42.0286087,4.83131765 C36.1871047,4.83131795 36.7892901,10.7143195 36.7892901,10.7143195 C36.7892901,10.7143195 37.0258337,15.9726521 42.0286085,15.9726523 C47.0313833,15.9726524 46.9690207,12.0569252 46.9690207,12.0569252 L44.2157231,12.0569252 C44.2157231,12.0569252 44.1032167,13.8404596 42.0928582,13.8404595 C40.0824996,13.8404595 39.1669487,12.1821155 39.1669486,10.6192253 C39.1669484,9.0563352 39.6299492,6.82847927 41.9224119,6.82847924 C44.2148746,6.82847921 44.2157231,8.89672257 44.2157231,8.89672257 L46.9806916,8.96677603 L46.9806916,8.96677603 Z M48.3131765,0.664711887 L48.3131765,15.8214361 L50.8381224,15.8214361 L50.8381224,8.21389958 C50.8381224,8.21389958 50.9510914,6.73367226 52.9055042,6.73367216 C54.8599169,6.73367206 54.8996295,8.19207066 54.8996295,8.19207066 L54.8996295,15.8553043 L57.468868,15.8553043 L57.4688677,8.05219624 C57.4688677,8.05219624 57.4653454,4.55660152 53.3703745,4.55660154 C51.6366943,4.55660143 50.8381223,5.34034455 50.8381223,5.34034455 L50.8381223,0.664711884 L48.3131765,0.664711887 L48.3131765,0.664711887 Z M67.4676303,7.82073694 C67.4676303,4.56641212 64.0867141,4.29450477 62.7661199,4.29450458 C61.4455258,4.29450439 58.5972693,4.76401832 58.5972695,7.69743235 C58.5972693,11.8953896 65.5437598,10.5341252 65.54376,12.5369881 C65.5437598,14.6707214 60.7530081,14.3505017 60.7530082,11.9575162 C60.753008,11.9575161 58.5128267,11.9575162 58.5128267,11.9575162 C58.5128267,11.9575162 58.4010579,16.0333405 63.4392156,16.0333405 C68.0763842,16.0333404 68.0763842,12.3092995 68.0763842,11.9575161 C68.0763842,8.32755612 61.0189397,9.33442696 61.0189397,7.34723935 C61.0189397,5.61439552 64.9907814,6.07455248 64.9907817,7.75679385 C64.9907816,7.75679394 67.4676306,7.75679394 67.4676303,7.82073694 L67.4676303,7.82073694 Z M69.2488864,0.664711887 L69.2488864,15.8214361 L71.7738322,15.8214361 L71.7738322,8.21389958 C71.7738322,8.21389958 71.8868012,6.73367226 73.841214,6.73367216 C75.7956268,6.73367206 75.8353393,8.19207066 75.8353393,8.19207066 L75.8353393,15.8553043 L78.4045779,15.8553043 L78.4045775,8.05219624 C78.4045775,8.05219624 78.4010552,4.55660152 74.3060843,4.55660154 C72.5724041,4.55660143 71.7738321,5.34034455 71.7738321,5.34034455 L71.7738321,0.664711884 L69.2488864,0.664711887 L69.2488864,0.664711887 Z M87.385819,12.1015139 C87.3858193,13.6060717 85.6604485,13.7398191 84.9736545,13.7398193 C83.4669983,13.7398193 82.4784918,12.815599 82.4784918,10.7755458 C82.4784918,10.7755458 89.9764288,10.7755458 89.9764288,10.7755458 C89.9764288,10.7755458 90.8151584,4.83131736 84.9736545,4.83131765 C79.1321505,4.83131795 79.734336,10.7143195 79.734336,10.7143195 C79.734336,10.7143195 79.9708795,15.9726521 84.9736543,15.9726523 C89.9764291,15.9726524 89.9140666,12.0569252 89.9140666,12.0569252 C89.9140666,12.0569252 87.3858193,12.1015139 87.385819,12.1015139 L87.385819,12.1015139 Z M82.4008067,9.14806206 L87.4928741,9.14806206 C87.4928741,9.14806206 87.2397935,6.97857008 84.9468404,6.97856995 C82.6538874,6.97856981 82.4008067,9.14806206 82.4008067,9.14806206 L82.4008067,9.14806206 Z M98.6588936,12.1015139 C98.6588938,13.6060717 96.933523,13.7398191 96.246729,13.7398193 C94.7400728,13.7398193 93.7515663,12.815599 93.7515663,10.7755458 C93.7515663,10.7755458 101.249503,10.7755458 101.249503,10.7755458 C101.249503,10.7755458 102.088233,4.83131736 96.246729,4.83131765 C90.405225,4.83131795 91.0074105,10.7143195 91.0074105,10.7143195 C91.0074105,10.7143195 91.2439541,15.9726521 96.2467288,15.9726523 C101.249504,15.9726524 101.187141,12.0569252 101.187141,12.0569252 C101.187141,12.0569252 98.6588938,12.1015139 98.6588936,12.1015139 L98.6588936,12.1015139 Z M93.6738812,9.14806206 L98.7659486,9.14806206 C98.7659486,9.14806206 98.512868,6.97857008 96.219915,6.97856995 C93.9269619,6.97856981 93.6738812,9.14806206 93.6738812,9.14806206 L93.6738812,9.14806206 Z M103.217663,1.73833803 L105.568878,1.73833803 L105.568878,4.72058558 L107.474412,4.72058558 L107.474412,6.74201026 L105.562599,6.74201026 L105.562599,12.5686273 C105.562599,12.5686273 105.465246,13.681397 106.469829,13.6813964 C107.474412,13.6813958 107.791433,13.6564322 107.791433,13.6564322 L107.791433,15.8831979 L105.581014,15.8831979 C104.984068,15.8831979 103.065728,15.4914382 103.065728,12.6589879 C103.065728,9.82653767 103.065728,6.78802632 103.065728,6.78802632 L101.457671,6.78802632 L101.457671,4.72052465 L103.210561,4.72052465 L103.217663,1.73833803 L103.217663,1.73833803 Z M117.391246,7.82073694 C117.391246,4.56641212 114.01033,4.29450477 112.689736,4.29450458 C111.369142,4.29450439 108.520885,4.76401832 108.520885,7.69743235 C108.520885,11.8953896 115.467376,10.5341252 115.467376,12.5369881 C115.467376,14.6707214 110.676624,14.3505017 110.676624,11.9575162 C110.676624,11.9575161 108.436442,11.9575162 108.436442,11.9575162 C108.436442,11.9575162 108.324674,16.0333405 113.362831,16.0333405 C118,16.0333404 118,12.3092995 118,11.9575161 C118,8.32755612 110.942555,9.33442696 110.942556,7.34723935 C110.942555,5.61439552 114.914397,6.07455248 114.914397,7.75679385 C114.914397,7.75679394 117.391246,7.75679394 117.391246,7.82073694 L117.391246,7.82073694 Z" id="Path-304" sketch:type="MSShapeGroup"></path>
            </g>
        </g>
    </g>
</svg>