<?xml version="1.0" encoding="UTF-8" standalone="no"?>
<svg width="129px" height="23px" viewBox="0 0 129 23" version="1.1" xmlns="http://www.w3.org/2000/svg" xmlns:xlink="http://www.w3.org/1999/xlink" xmlns:sketch="http://www.bohemiancoding.com/sketch/ns">
    <!-- Generator: Sketch 3.5.2 (25235) - http://www.bohemiancoding.com/sketch -->
    <title>Logo</title>
    <desc>Created with Sketch.</desc>
    <defs></defs>
    <g id="Page-1" stroke="none" stroke-width="1" fill="none" fill-rule="evenodd" sketch:type="MSPage">
        <g id="Desktop-HD" sketch:type="MSArtboardGroup" transform="translate(-434.000000, -101.000000)">
            <g id="Hero" sketch:type="MSLayerGroup" transform="translate(434.000000, 100.000000)">
                <g id="Logo">
                    <path d="M1.2,6.11017195 L1.2,6.11017195 L1.2,18.0428737 C1.2,20.2029825 2.94873647,21.9530457 5.10590069,21.9530457 L17.0286287,21.9530457 C19.185929,21.9530457 20.9345294,20.2028463 20.9345294,18.0428737 L20.9345294,6.11017195 C20.9345294,3.95006318 19.185793,2.2 17.0286287,2.2 L5.10590069,2.2 C2.94860047,2.2 1.2,3.95019941 1.2,6.11017195 L1.2,6.11017195 Z M0,6.11017195 C0,3.28790191 2.2854145,1 5.10590069,1 L17.0286287,1 C19.8485398,1 22.1345294,3.28732633 22.1345294,6.11017195 L22.1345294,18.0428737 C22.1345294,20.8651438 19.8491149,23.1530457 17.0286287,23.1530457 L5.10590069,23.1530457 C2.28598961,23.1530457 0,20.8657194 0,18.0428737 L0,6.11017195 L0,6.11017195 Z" id="Shape" fill="#6C63FF" sketch:type="MSShapeGroup"></path>
                    <text id="sketchsheets" sketch:type="MSTextLayer" font-family="Helvetica Neue" font-size="16.8" font-weight="normal" fill="#202022">
                        <tspan x="30.327839" y="17.2765228">sketchsheets</tspan>
                    </text>
                    <text id="s" sketch:type="MSTextLayer" font-family="Helvetica Neue" font-size="16.8" font-weight="normal" fill="#6C63FF">
                        <tspan x="7" y="16.7999992">s</tspan>
                    </text>
                </g>
            </g>
        </g>
    </g>
</svg>