<?xml version="1.0" encoding="UTF-8" standalone="no"?>
<svg width="130px" height="22px" viewBox="0 0 130 22" version="1.1" xmlns="http://www.w3.org/2000/svg" xmlns:xlink="http://www.w3.org/1999/xlink" xmlns:sketch="http://www.bohemiancoding.com/sketch/ns">
    <!-- Generator: Sketch 3.5.2 (25235) - http://www.bohemiancoding.com/sketch -->
    <title>Group 2 Copy 3</title>
    <desc>Created with Sketch.</desc>
    <defs></defs>
    <g id="Logo" stroke="none" stroke-width="1" fill="none" fill-rule="evenodd" sketch:type="MSPage">
        <g id="Artboard-2" sketch:type="MSArtboardGroup" transform="translate(-982.000000, -970.000000)" fill="#FFFFFF">
            <g id="Group-2-Copy-3" sketch:type="MSLayerGroup" transform="translate(982.000000, 970.000000)">
                <g id="Group" transform="translate(25.934044, 3.249515)" sketch:type="MSShapeGroup">
                    <path d="M7.87426572,6.90614523 C7.87426572,4.03239561 4.90137726,3.79228631 3.74015969,3.79228615 C2.57894212,3.79228598 0.0744290391,4.20689286 0.0744291906,6.79726043 C0.074429038,10.5042899 6.18257861,9.30221778 6.18257874,11.070857 C6.18257861,12.9550621 1.97000133,12.6722903 1.97000141,10.5591512 C1.97000127,10.5591511 0.000177383682,10.5591512 0.000177383682,10.5591512 C0.000177383682,10.5591512 -0.0981024665,14.1583305 4.33202242,14.1583304 C8.40955188,14.1583304 8.40955188,10.8697954 8.40955188,10.5591511 C8.40955188,7.35369473 2.20383884,8.24281762 2.20383886,6.48802055 C2.20383884,4.95782318 5.69633664,5.36416734 5.69633697,6.84967993 C5.69633685,6.84968001 7.87426602,6.84968001 7.87426572,6.90614523 Z M9.44054997,0.045700881 L9.44054997,13.7718474 L11.5219547,13.7718474 L11.4862904,10.0726136 L12.1464544,9.43436404 L14.9257125,13.8417074 L17.5592703,13.8417074 L13.7791762,8.1756794 L17.4720386,4.30248434 L14.5379836,4.30248434 L11.4862904,7.39429897 L11.4862904,2.57571742e-13 L9.44054997,0.045700881 Z M24.2085484,10.6863091 C24.2085486,12.0149172 22.6914051,12.1330237 22.0874972,12.1330238 C20.7626726,12.1330238 19.8934646,11.3168859 19.8934646,9.51540566 C19.8934646,9.51540566 26.4865091,9.51540566 26.4865091,9.51540566 C26.4865091,9.51540566 27.2240162,4.26632165 22.0874972,4.26632191 C16.9509783,4.26632218 17.4804887,9.46133942 17.4804887,9.46133942 C17.4804887,9.46133942 17.6884849,14.1047393 22.0874971,14.1047394 C26.4865093,14.1047395 26.431673,10.6469348 26.431673,10.6469348 C26.431673,10.6469348 24.2085486,10.6863091 24.2085484,10.6863091 Z M19.8251549,8.07824705 L24.3026835,8.07824705 C24.3026835,8.07824705 24.0801461,6.16246511 22.0639193,6.16246499 C20.0476925,6.16246486 19.8251549,8.07824705 19.8251549,8.07824705 Z M28.2171406,1.4221073 L30.2845976,1.4221073 L30.2845976,4.05559758 L31.9601613,4.05559758 L31.9601613,5.84062788 L30.2790766,5.84062788 L30.2790766,10.9858545 C30.2790766,10.9858545 30.1934728,11.9684919 31.076817,11.9684914 C31.9601613,11.9684909 32.2389228,11.9464466 32.2389228,11.9464466 L32.2389227,13.9128044 L30.2952695,13.9128044 C29.7703654,13.9128044 28.0835416,13.5668589 28.0835416,11.0656479 C28.0835416,8.56443696 28.0835416,5.88126262 28.0835416,5.88126262 L26.6695537,5.88126262 L26.6695537,4.05554378 L28.2108952,4.05554378 L28.2171406,1.4221073 Z M41.3108016,7.91816142 C41.3108016,7.91816142 41.3005389,4.26632218 36.9563634,4.26632191 C31.8198445,4.26632218 32.3493549,9.46133942 32.3493549,9.46133942 C32.3493549,9.46133942 32.5573511,14.1047393 36.9563633,14.1047394 C41.3553755,14.1047395 41.3005392,10.6469348 41.3005392,10.6469348 L38.8795248,10.6469348 C38.8795248,10.6469348 38.7805963,12.2218948 37.012859,12.2218947 C35.2451216,12.2218947 34.4400644,10.7574848 34.4400643,9.37736596 C34.4400642,7.99724714 34.8471875,6.02992658 36.8629831,6.02992655 C38.8787787,6.02992653 38.8795248,7.85630032 38.8795248,7.85630032 L41.3108016,7.91816142 Z M42.4824749,0.586977528 L42.4824749,13.9712071 L44.7026962,13.9712071 L44.7026962,7.25332968 C44.7026962,7.25332968 44.8020315,5.94620673 46.520575,5.94620664 C48.2391184,5.94620655 48.2740382,7.23405354 48.2740382,7.23405354 L48.2740382,14.0011146 L50.5332068,14.0011146 L50.5332065,7.11053665 C50.5332065,7.11053665 50.5301093,4.0237323 46.9293422,4.02373232 C45.4048921,4.02373222 44.7026962,4.71582095 44.7026962,4.71582095 L44.7026962,0.586977525 L42.4824749,0.586977528 Z M59.3252631,6.90614523 C59.3252631,4.03239561 56.3523746,3.79228631 55.191157,3.79228615 C54.0299395,3.79228598 51.5254264,4.20689286 51.5254265,6.79726043 C51.5254264,10.5042899 57.633576,9.30221778 57.6335761,11.070857 C57.633576,12.9550621 53.4209987,12.6722903 53.4209988,10.5591512 C53.4209986,10.5591511 51.4511747,10.5591512 51.4511747,10.5591512 C51.4511747,10.5591512 51.3528949,14.1583305 55.7830198,14.1583304 C59.8605492,14.1583304 59.8605492,10.8697954 59.8605492,10.5591511 C59.8605492,7.35369473 53.6548362,8.24281762 53.6548362,6.48802055 C53.6548362,4.95782318 57.147334,5.36416734 57.1473343,6.84967993 C57.1473342,6.84968001 59.3252634,6.84968001 59.3252631,6.90614523 Z M60.8915473,0.586977528 L60.8915473,13.9712071 L63.1117687,13.9712071 L63.1117687,7.25332968 C63.1117687,7.25332968 63.211104,5.94620673 64.9296474,5.94620664 C66.6481908,5.94620655 66.6831106,7.23405354 66.6831106,7.23405354 L66.6831106,14.0011146 L68.9422792,14.0011146 L68.942279,7.11053665 C68.942279,7.11053665 68.9391817,4.0237323 65.3384146,4.02373232 C63.8139645,4.02373222 63.1117686,4.71582095 63.1117686,4.71582095 L63.1117686,0.586977525 L60.8915473,0.586977528 Z M76.8396145,10.6863091 C76.8396147,12.0149172 75.3224712,12.1330237 74.7185633,12.1330238 C73.3937387,12.1330238 72.5245307,11.3168859 72.5245307,9.51540566 C72.5245307,9.51540566 79.1175752,9.51540566 79.1175752,9.51540566 C79.1175752,9.51540566 79.8550822,4.26632165 74.7185633,4.26632191 C69.5820444,4.26632218 70.1115548,9.46133942 70.1115548,9.46133942 C70.1115548,9.46133942 70.319551,14.1047393 74.7185632,14.1047394 C79.1175754,14.1047395 79.0627391,10.6469348 79.0627391,10.6469348 C79.0627391,10.6469348 76.8396147,10.6863091 76.8396145,10.6863091 Z M72.456221,8.07824705 L76.9337496,8.07824705 C76.9337496,8.07824705 76.7112122,6.16246511 74.6949854,6.16246499 C72.6787586,6.16246486 72.456221,8.07824705 72.456221,8.07824705 Z M86.752192,10.6863091 C86.7521922,12.0149172 85.2350487,12.1330237 84.6311408,12.1330238 C83.3063162,12.1330238 82.4371081,11.3168859 82.4371082,9.51540566 C82.4371081,9.51540566 89.0301526,9.51540566 89.0301526,9.51540566 C89.0301526,9.51540566 89.7676597,4.26632165 84.6311408,4.26632191 C79.4946219,4.26632218 80.0241323,9.46133942 80.0241323,9.46133942 C80.0241323,9.46133942 80.2321284,14.1047393 84.6311407,14.1047394 C89.0301529,14.1047395 88.9753166,10.6469348 88.9753166,10.6469348 C88.9753166,10.6469348 86.7521922,10.6863091 86.752192,10.6863091 Z M82.3687985,8.07824705 L86.8463271,8.07824705 C86.8463271,8.07824705 86.6237896,6.16246511 84.6075628,6.16246499 C82.591336,6.16246486 82.3687985,8.07824705 82.3687985,8.07824705 Z M90.7607842,1.53504906 L92.8282411,1.53504906 L92.8282411,4.16853934 L94.5038048,4.16853934 L94.5038048,5.95356964 L92.8227202,5.95356964 L92.8227202,11.0987962 C92.8227202,11.0987962 92.7371164,12.0814336 93.6204606,12.0814331 C94.5038048,12.0814326 94.7825664,12.0593884 94.7825664,12.0593884 L94.7825663,14.0257462 L92.838913,14.0257462 C92.314009,14.0257462 90.6271852,13.6798006 90.6271852,11.1785897 C90.6271852,8.67737871 90.6271852,5.99420437 90.6271852,5.99420437 L89.2131972,5.99420437 L89.2131972,4.16848554 L90.7545388,4.16848554 L90.7607842,1.53504906 Z M103.22382,6.90614523 C103.22382,4.03239561 100.250932,3.79228631 99.0897144,3.79228615 C97.9284968,3.79228598 95.4239838,4.20689286 95.4239839,6.79726043 C95.4239838,10.5042899 101.532133,9.30221778 101.532133,11.070857 C101.532133,12.9550621 97.319556,12.6722903 97.3195561,10.5591512 C97.319556,10.5591511 95.3497321,10.5591512 95.3497321,10.5591512 C95.3497321,10.5591512 95.2514523,14.1583305 99.6815771,14.1583304 C103.759107,14.1583304 103.759107,10.8697954 103.759107,10.5591511 C103.759107,7.35369473 97.5533936,8.24281762 97.5533936,6.48802055 C97.5533936,4.95782318 101.045891,5.36416734 101.045892,6.84967993 C101.045892,6.84968001 103.223821,6.84968001 103.22382,6.90614523 Z" id="Path-304"></path>
                </g>
                <g id="Group" sketch:type="MSShapeGroup">
                    <path d="M14.8998135,8.88339008 C14.8998135,5.79638875 11.7063166,5.53846172 10.4589288,5.53846154 C9.21154098,5.53846136 6.52117605,5.98383488 6.52117621,8.76642529 C6.52117605,12.7485415 13.0825917,11.4572675 13.0825919,13.3571517 C13.0825917,15.3811776 8.55741265,15.0774222 8.55741274,12.8074739 C8.55741259,12.8074737 6.44141442,12.8074739 6.44141442,12.8074739 C6.44141442,12.8074739 6.33584153,16.6737367 11.0947117,16.6737366 C15.4748215,16.6737365 15.4748215,13.1411699 15.4748215,12.8074737 C15.4748215,9.36415078 8.80860249,10.3192526 8.80860252,8.43423772 C8.80860249,6.79048932 12.5602673,7.22698698 12.5602677,8.82273467 C12.5602675,8.82273475 14.8998138,8.82273475 14.8998135,8.88339008 Z" id="Path-305"></path>
                    <path d="M2,5.27074014 L2,5.27074014 L2,16.7292599 C2,18.5359731 3.46414083,20 5.27074014,20 L16.7292599,20 C18.5359731,20 20,18.5358592 20,16.7292599 L20,5.27074014 C20,3.46402692 18.5358592,2 16.7292599,2 L5.27074014,2 C3.46402692,2 2,3.46414083 2,5.27074014 L2,5.27074014 Z M0,5.074868 C0,2.2720958 2.2661605,0 5.06288485,0 L16.8851671,0 C19.6813212,0 21.9480519,2.27152419 21.9480519,5.074868 L21.9480519,16.925132 C21.9480519,19.7279042 19.6818915,22 16.8851671,22 L5.06288485,22 C2.26673076,22 0,19.7284758 0,16.925132 L0,5.074868 L0,5.074868 Z" id="Shape"></path>
                </g>
            </g>
        </g>
    </g>
</svg>