<?xml version="1.0" encoding="UTF-8"?>
<svg width="356px" height="420px" viewBox="0 0 356 420" version="1.1" xmlns="http://www.w3.org/2000/svg" xmlns:xlink="http://www.w3.org/1999/xlink">
    <!-- Generator: Sketch 49.3 (51167) - http://www.bohemiancoding.com/sketch -->
    <title>applewatch</title>
    <desc>Created with Sketch.</desc>
    <defs>
        <filter x="-43.1%" y="-22.9%" width="186.1%" height="145.8%" filterUnits="objectBoundingBox" id="filter-1">
            <feGaussianBlur stdDeviation="14.3582589" in="SourceGraphic"></feGaussianBlur>
        </filter>
        <radialGradient cx="50%" cy="83.347337%" fx="50%" fy="83.347337%" r="6.95096858%" gradientTransform="translate(0.500000,0.833473),scale(1.000000,0.530402),rotate(-90.000000),scale(1.000000,11.207615),translate(-0.500000,-0.833473)" id="radialGradient-2">
            <stop stop-color="#EEF1F2" offset="0%"></stop>
            <stop stop-color="#F7F9FA" stop-opacity="0" offset="100%"></stop>
        </radialGradient>
        <radialGradient cx="51.6887903%" cy="18.2225787%" fx="51.6887903%" fy="18.2225787%" r="6.95096858%" gradientTransform="translate(0.516888,0.182226),scale(1.000000,0.530402),rotate(-90.000000),scale(1.000000,11.207615),translate(-0.516888,-0.182226)" id="radialGradient-3">
            <stop stop-color="#FFFFFF" offset="0%"></stop>
            <stop stop-color="#F7F9FA" stop-opacity="0" offset="100%"></stop>
        </radialGradient>
        <linearGradient x1="53.7226498%" y1="6.07964611%" x2="53.7226498%" y2="-0.88568891%" id="linearGradient-4">
            <stop stop-color="#F7F9FA" stop-opacity="0" offset="0%"></stop>
            <stop stop-color="#EAEEF0" offset="100%"></stop>
        </linearGradient>
        <linearGradient x1="53.7226498%" y1="81.0567532%" x2="53.7226498%" y2="100%" id="linearGradient-5">
            <stop stop-color="#F7F9FA" stop-opacity="0" offset="0%"></stop>
            <stop stop-color="#D3D5D6" stop-opacity="0.428810009" offset="100%"></stop>
        </linearGradient>
        <path d="M97.5569078,41.4469588 C105.628981,44.5789378 111.352241,52.4257082 111.352241,61.6096765 L111.352241,148.073306 C111.352241,154.9386 108.153308,161.05642 103.166603,165.016299 C102.728337,165.482893 102.256943,165.931075 101.751487,166.356654 C101.751487,166.356654 97.2791459,169.246015 95.177341,171.256399 C93.0755361,173.266783 92.2453459,175.415992 91.3766413,177.88378 C89.4932472,183.234066 88.6865888,198.02087 88.3064225,201.288751 C87.9650402,204.223247 86.8273308,206.179769 83.1983644,207.252026 C81.9263179,207.62788 72.7180901,210.005753 56.8466578,210.129222 C56.7492049,210.132312 56.651943,210.131814 56.5548672,210.131232 C56.4579117,210.131814 56.3607102,210.132312 56.2632633,210.132725 C40.3520141,210.005825 29.5069955,207.627886 28.2349297,207.252026 C24.6059632,206.179769 23.4682539,204.223247 23.1268715,201.288751 C22.7467053,198.02087 22.024687,183.522566 20.0566528,177.88378 C19.1951504,175.415415 18.357758,173.266783 16.255953,171.256399 C14.1541481,169.246015 9.68180704,166.356654 9.68180704,166.356654 C9.02322851,165.80215 8.42247471,165.209275 7.87748108,164.587296 C3.19160029,160.621854 0.216216216,154.695169 0.216216216,148.073306 L0.216216216,61.6096765 C0.216216216,52.535107 5.80527918,44.7664959 13.7244569,41.5611919 C14.6616735,40.8591326 15.581032,40.1229326 16.255953,39.4773682 C18.357758,37.4669844 19.2398306,35.1934186 20.0566528,32.849987 C21.9509559,27.4153037 22.7467053,12.7128974 23.1268715,9.4450168 C23.4682539,6.51051998 24.6059632,4.5539988 28.2349297,3.48174123 C29.5069955,3.10588152 40.3520141,0.727942362 56.2632633,0.601042741 C56.3607102,0.601455253 56.4579117,0.601952954 56.5548672,0.602534889 C56.651943,0.601952954 56.7492049,0.601455253 56.8466578,0.604545356 C72.7180901,0.728014764 81.9263179,3.10588724 83.1983644,3.48174123 C86.8273308,4.5539988 87.9650402,6.51051998 88.3064225,9.4450168 C88.6865888,12.7128974 89.6361623,26.6287275 91.3766413,32.849987 C92.0705658,35.3303872 93.0755361,37.4669844 95.177341,39.4773682 C95.815746,40.0880049 96.6728538,40.7797349 97.5569078,41.4469588 Z M28.1316776,169.690616 C29.7716074,169.74473 31.3221402,169.783643 32.3900414,169.783643 L56.5549576,169.783643 L79.0432526,169.783643 C80.1111538,169.783643 81.6616866,169.74473 83.3016165,169.690616 L28.1316776,169.690616 Z" id="path-6"></path>
        <filter x="-3.1%" y="-1.7%" width="106.3%" height="103.3%" filterUnits="objectBoundingBox" id="filter-7">
            <feGaussianBlur stdDeviation="1.5" in="SourceAlpha" result="shadowBlurInner1"></feGaussianBlur>
            <feOffset dx="0" dy="0" in="shadowBlurInner1" result="shadowOffsetInner1"></feOffset>
            <feComposite in="shadowOffsetInner1" in2="SourceAlpha" operator="arithmetic" k2="-1" k3="1" result="shadowInnerInner1"></feComposite>
            <feColorMatrix values="0 0 0 0 0   0 0 0 0 0   0 0 0 0 0  0 0 0 0.0895040761 0" type="matrix" in="shadowInnerInner1" result="shadowMatrixInner1"></feColorMatrix>
            <feGaussianBlur stdDeviation="1.5" in="SourceAlpha" result="shadowBlurInner2"></feGaussianBlur>
            <feOffset dx="0" dy="-4" in="shadowBlurInner2" result="shadowOffsetInner2"></feOffset>
            <feComposite in="shadowOffsetInner2" in2="SourceAlpha" operator="arithmetic" k2="-1" k3="1" result="shadowInnerInner2"></feComposite>
            <feColorMatrix values="0 0 0 0 1   0 0 0 0 1   0 0 0 0 1  0 0 0 0.200096241 0" type="matrix" in="shadowInnerInner2" result="shadowMatrixInner2"></feColorMatrix>
            <feMerge>
                <feMergeNode in="shadowMatrixInner1"></feMergeNode>
                <feMergeNode in="shadowMatrixInner2"></feMergeNode>
            </feMerge>
        </filter>
        <path d="M23.8178343,44.7960053 L90.1571475,44.7960053 C99.2172395,44.7960053 106.321243,52.1089982 106.321243,61.1251315 L106.561895,148.53143 C106.561895,157.549758 99.2179566,164.860557 90.1571475,164.860557 L26.2243588,164.860557 C11.2341492,165.358637 5.00656212,158.803394 5.00656212,146.130139 L5.24721457,63.5264225 C5.24721457,50.607411 11.6686867,44.7960053 23.8178343,44.7960053 Z" id="path-8"></path>
        <linearGradient x1="182.241007%" y1="14.9688321%" x2="0%" y2="50%" id="linearGradient-10">
            <stop stop-color="#F7F9FA" stop-opacity="0" offset="0%"></stop>
            <stop stop-color="#EEF0F1" offset="100%"></stop>
        </linearGradient>
        <path d="M111.347495,107.243311 L112.223522,107.243311 L112.789345,107.830056 L112.789345,139.413322 L112.232479,140.148237 L111.347495,140.148237 C111.347495,140.148237 110.154655,138.304276 110.154655,135.068715 C110.154655,131.833153 110.154655,112.771154 110.154655,112.771154 C110.154655,112.771154 110.340053,109.696433 110.753779,108.61115 C111.167506,107.525868 111.347495,107.243311 111.347495,107.243311 Z" id="path-11"></path>
        <filter x="-3.8%" y="-0.3%" width="107.6%" height="100.6%" filterUnits="objectBoundingBox" id="filter-13">
            <feOffset dx="0.2" dy="0" in="SourceAlpha" result="shadowOffsetInner1"></feOffset>
            <feComposite in="shadowOffsetInner1" in2="SourceAlpha" operator="arithmetic" k2="-1" k3="1" result="shadowInnerInner1"></feComposite>
            <feColorMatrix values="0 0 0 0 0.874509804   0 0 0 0 0.874509804   0 0 0 0 0.874509804  0 0 0 1 0" type="matrix" in="shadowInnerInner1"></feColorMatrix>
        </filter>
        <path d="M115.831706,90.804512 C115.906452,90.6888826 115.971868,90.5641833 116.022828,90.4305747 C116.312757,89.6704273 116.621622,85.5064343 116.621622,83.3859022 L116.621622,78.7617207 C116.621622,74.0280126 116.406215,72.883498 116.016176,71.746769 C115.994956,71.6823015 115.971217,71.6189843 115.945076,71.5569348 C115.911399,71.4751276 115.877447,71.4040262 115.843393,71.344063 C115.418837,70.5528528 114.585822,70.0151094 113.627655,70.0151094 L113.285773,70.0151094 L112.94389,70.0151094 L110.969019,70.0151094 C109.171368,71.535993 107.759482,74.8130378 107.759482,80.8232969 C107.759482,87.2326973 109.309589,90.3826904 110.992965,92.0969835 L113.627655,92.1118483 C114.577268,92.1118483 115.403724,91.5838688 115.831706,90.804512 Z" id="path-14"></path>
        <filter x="-1.1%" y="-0.5%" width="102.3%" height="100.9%" filterUnits="objectBoundingBox" id="filter-16">
            <feOffset dx="0.2" dy="0" in="SourceAlpha" result="shadowOffsetInner1"></feOffset>
            <feComposite in="shadowOffsetInner1" in2="SourceAlpha" operator="arithmetic" k2="-1" k3="1" result="shadowInnerInner1"></feComposite>
            <feColorMatrix values="0 0 0 0 0.874509804   0 0 0 0 0.874509804   0 0 0 0 0.874509804  0 0 0 1 0" type="matrix" in="shadowInnerInner1"></feColorMatrix>
        </filter>
    </defs>
    <g id="Page-1" stroke="none" stroke-width="1" fill="none" fill-rule="evenodd">
        <g id="Desktop-HD-Copy-53" transform="translate(-1252.000000, -1971.000000)">
            <g id="Group-4" transform="translate(440.000000, 1031.000000)">
                <g id="Group-5-Copy-5" transform="translate(812.000000, 940.000000)">
                    <g id="Card">
                        <g id="Apple-Watch">
                            <rect id="bounds" x="0" y="0" width="356" height="420"></rect>
                            <g transform="translate(122.000000, 70.000000)">
                                <g id="Device" transform="translate(0.581081, 0.637654)">
                                    <ellipse id="Oval" fill="#000000" opacity="0.14917346" filter="url(#filter-1)" cx="56" cy="116" rx="50" ry="94"></ellipse>
                                    <g id="Shape">
                                        <use fill="#F7F9FA" fill-rule="evenodd" xlink:href="#path-6"></use>
                                        <use fill="url(#radialGradient-2)" fill-rule="evenodd" xlink:href="#path-6"></use>
                                        <use fill-opacity="0.5" fill="url(#radialGradient-3)" fill-rule="evenodd" xlink:href="#path-6"></use>
                                        <use fill="url(#linearGradient-4)" fill-rule="evenodd" xlink:href="#path-6"></use>
                                        <use fill="url(#linearGradient-5)" fill-rule="evenodd" xlink:href="#path-6"></use>
                                        <use fill="black" fill-opacity="1" filter="url(#filter-7)" xlink:href="#path-6"></use>
                                    </g>
                                    <mask id="mask-9" fill="white">
                                        <use xlink:href="#path-8"></use>
                                    </mask>
                                    <use id="Mask" fill="#FFFFFF" xlink:href="#path-8"></use>
                                    <mask id="mask-12" fill="white">
                                        <use xlink:href="#path-11"></use>
                                    </mask>
                                    <g id="Mask">
                                        <use fill="#F7F9FA" fill-rule="evenodd" xlink:href="#path-11"></use>
                                        <use fill="url(#linearGradient-10)" fill-rule="evenodd" xlink:href="#path-11"></use>
                                        <use fill="black" fill-opacity="1" filter="url(#filter-13)" xlink:href="#path-11"></use>
                                    </g>
                                    <mask id="mask-15" fill="white">
                                        <use xlink:href="#path-14"></use>
                                    </mask>
                                    <g id="Shape">
                                        <use fill="#F7F9FA" fill-rule="evenodd" xlink:href="#path-14"></use>
                                        <use fill="url(#linearGradient-10)" fill-rule="evenodd" xlink:href="#path-14"></use>
                                        <use fill="black" fill-opacity="1" filter="url(#filter-16)" xlink:href="#path-14"></use>
                                    </g>
                                    <path d="M113.507897,80.8833424 C113.507897,80.7175314 113.64435,80.583115 113.814213,80.583115 L116.79434,80.583115 C116.963514,80.583115 117.100656,80.7223806 117.100656,80.8833424 C117.100656,81.0491534 116.964203,81.1835698 116.79434,81.1835698 L113.814213,81.1835698 C113.645039,81.1835698 113.507897,81.0443042 113.507897,80.8833424 Z M113.80564,79.0219323 C113.80564,79.0219323 114.966254,79.0209126 115.530637,79.0819778 C115.904914,79.122474 116.275854,79.2210675 116.621622,79.4098824 C116.810661,79.5131117 116.891322,79.686213 116.851549,79.7999143 C116.802751,79.9394145 116.786691,79.9270711 116.621622,79.9270711 C116.621622,79.9270711 115.83276,79.7151218 115.422404,79.6707221 C114.894099,79.6135605 113.80564,79.6223872 113.80564,79.6223872 C113.64075,79.6223872 113.507897,79.4889051 113.507897,79.3221598 C113.507897,79.1558746 113.640571,79.0219323 113.80564,79.0219323 Z M113.802206,77.5168078 C113.802206,77.5168078 114.971958,77.5168078 115.530637,77.6408861 C115.863324,77.7147734 116.357369,77.9660519 116.621622,78.2296305 C116.738265,78.3459768 116.902111,78.5338263 116.862338,78.6475276 C116.81354,78.7870278 116.797479,78.7746845 116.63241,78.7746845 C116.63241,78.7746845 115.83276,78.2740301 115.422404,78.2296305 C114.894099,78.1724688 113.802206,78.1172627 113.802206,78.1172627 C113.637316,78.1172627 113.504463,77.9837805 113.504463,77.8170352 C113.504463,77.6507501 113.637137,77.5168078 113.802206,77.5168078 Z M113.802206,76.0757161 C113.802206,76.0757161 114.872942,76.1417317 115.428223,76.268753 C115.896813,76.3759436 116.367427,76.676171 116.630042,77.1898707 C116.693939,77.3148596 116.873867,77.8323672 116.834094,77.9460685 C116.785296,78.0855687 116.76401,78.207712 116.630042,77.8117285 C116.41594,77.1788848 115.852392,76.8847585 115.29264,76.7754454 C114.842843,76.6876054 113.802206,76.676171 113.802206,76.676171 C113.637316,76.676171 113.504463,76.5426889 113.504463,76.3759436 C113.504463,76.2096584 113.637137,76.0757161 113.802206,76.0757161 Z M113.802206,74.6986573 C113.802206,74.6986573 115.144996,74.8506425 115.551805,75.0570831 C116.143428,75.3573106 116.458449,75.7651373 116.621622,76.1676608 C116.703546,76.3697572 116.919615,76.7315547 116.841316,76.7688486 C116.746724,76.8139027 116.849573,77.1225477 116.621622,76.689218 C116.133231,75.7607998 115.773627,75.5636706 115.202061,75.4170922 C114.630495,75.2705138 113.802206,75.2991122 113.802206,75.2991122 C113.637316,75.2991122 113.504463,75.1656301 113.504463,74.9988848 C113.504463,74.8325996 113.637137,74.6986573 113.802206,74.6986573 Z M113.757733,73.5697993 C113.757733,73.5697993 114.793697,73.6209709 115.343309,73.8552059 C115.816204,74.0567453 116.413272,74.7648012 116.621622,75.4198482 C116.686218,75.6229383 116.697933,75.7688682 116.697933,75.9022644 C116.697933,76.002955 116.621622,75.6799378 116.454205,75.3904411 C116.193057,74.9388639 115.681855,74.4225302 115.269571,74.2740877 C114.857287,74.1256451 114.476842,74.1077312 113.757733,74.0501631 C113.593837,74.0370425 113.45999,73.9433775 113.45999,73.8099812 C113.45999,73.6769531 113.592665,73.5697993 113.757733,73.5697993 Z M113.685881,72.4649682 C114.511051,72.4652202 115.182237,72.6918832 115.534379,72.9358473 C115.886521,73.1798115 116.465842,73.9645661 116.530604,74.5322129 C116.551521,74.7155512 116.529873,74.7782858 116.529873,74.8947141 C116.529873,75.010821 116.496805,74.5793873 116.259276,74.1594207 C116.021747,73.7394541 115.611392,73.349393 115.25118,73.1553007 C114.890969,72.9612084 114.405882,72.9519142 113.685881,72.8842299 C113.52234,72.8688561 113.388138,72.7910273 113.388138,72.6745991 C113.388138,72.5584921 113.520812,72.4649178 113.685881,72.4649682 Z M113.661928,71.5762921 C113.914162,71.5762921 114.670286,71.6493254 114.966257,71.7934585 C115.454793,72.0313682 115.935824,72.4400573 116.170334,72.8204767 C116.203792,72.8747531 116.237524,72.9565895 116.269507,73.0504738 C116.372039,73.3514535 116.456603,73.7762555 116.456603,73.813778 C116.456603,73.8955532 116.140552,73.1798955 116.064171,73.0435363 C115.859754,72.6786017 115.524402,72.4744097 115.340064,72.3476479 C115.153701,72.2194941 114.715717,71.9385294 113.661928,71.8715818 C113.497667,71.8611462 113.364185,71.8059384 113.364185,71.7239369 C113.364185,71.6421618 113.496859,71.5762921 113.661928,71.5762921 Z M113.614029,70.9280452 C113.614029,70.9280452 114.395152,70.9545662 114.597288,71.015418 C114.782186,71.0710801 115.126988,71.2277047 115.290505,71.3246024 C115.618404,71.5189092 115.993454,71.9415264 116.103204,72.1796202 C116.313951,72.636822 116.386636,72.8760951 116.442364,73.2833665 C116.44342,73.2910869 116.154222,72.6143156 116.145949,72.5983847 C116.112237,72.5334647 115.731837,71.8690639 115.125954,71.5132267 C114.587767,71.197147 113.829651,71.1825139 113.614029,71.1708471 C113.449682,71.1619547 113.316286,71.1168719 113.316286,71.0494462 C113.316286,70.9822066 113.44896,70.9280452 113.614029,70.9280452 Z M113.597511,70.4408788 C113.432442,70.4408788 113.299768,70.4783217 113.299768,70.5248059 C113.299768,70.5714187 113.432887,70.6034771 113.597511,70.6087329 C113.980046,70.6209457 114.520056,70.6647031 114.847404,70.8326135 C114.997483,70.9095952 115.456782,71.1056621 115.934267,71.7929601 C116.13664,72.0842587 116.460569,73.0577063 116.458065,73.0423929 C116.213518,71.546885 115.256911,70.747764 114.633763,70.5626433 C114.306334,70.465373 113.597511,70.4408788 113.597511,70.4408788 Z M113.597511,70.0871611 C113.597511,70.0871611 114.523696,70.1405658 114.892445,70.3313744 C115.423293,70.6060608 115.89424,70.7771711 116.152089,71.9429859 C116.176277,72.0523459 115.808967,71.3529539 115.703813,71.2218243 C115.414237,70.8607163 114.862003,70.470206 114.691931,70.4020627 C114.463261,70.3104406 114.049325,70.2644682 113.597511,70.2111281 C113.435296,70.1919774 113.299768,70.18357 113.299768,70.1491446 C113.299768,70.1148142 113.432442,70.0871611 113.597511,70.0871611 Z M113.80564,82.6894425 C113.640571,82.6894425 113.507897,82.5555002 113.507897,82.3892151 C113.507897,82.2224698 113.64075,82.0889877 113.80564,82.0889877 C113.80564,82.0889877 114.894099,82.0978144 115.422404,82.0406527 C115.83276,81.9962531 116.621622,81.7843037 116.621622,81.7843037 C116.786691,81.7843037 116.802751,81.7719604 116.851549,81.9114606 C116.891322,82.0251619 116.810661,82.1982631 116.621622,82.3014924 C116.275854,82.4903073 115.904914,82.5889009 115.530637,82.629397 C114.966254,82.6904622 113.80564,82.6894425 113.80564,82.6894425 Z M113.802206,84.2671098 C113.637137,84.2671098 113.504463,84.1331675 113.504463,83.9668824 C113.504463,83.800137 113.637316,83.6666549 113.802206,83.6666549 C113.802206,83.6666549 114.894099,83.6114488 115.422404,83.5542871 C115.83276,83.5098875 116.63241,83.0092331 116.63241,83.0092331 C116.797479,83.0092331 116.81354,82.9968898 116.862338,83.13639 C116.902111,83.2500913 116.738265,83.4379408 116.621622,83.5542871 C116.357369,83.8178657 115.863324,84.0691442 115.530637,84.1430314 C114.971958,84.2671098 113.802206,84.2671098 113.802206,84.2671098 Z M113.802206,85.7094951 C113.637137,85.7094951 113.504463,85.5755529 113.504463,85.4092677 C113.504463,85.2425224 113.637316,85.1090403 113.802206,85.1090403 C113.802206,85.1090403 114.842843,85.0976058 115.29264,85.0097659 C115.852392,84.9004528 116.41594,84.6063264 116.630042,83.9734828 C116.76401,83.5774992 116.785296,83.6996426 116.834094,83.8391428 C116.873867,83.9528441 116.693939,84.4703516 116.630042,84.5953406 C116.367427,85.1090403 115.896813,85.4092677 115.428223,85.5164583 C114.872942,85.6434796 113.802206,85.7094951 113.802206,85.7094951 Z M113.802206,87.0771162 C113.637137,87.0771162 113.504463,86.9431739 113.504463,86.7768888 C113.504463,86.6101434 113.637316,86.4766613 113.802206,86.4766613 C113.802206,86.4766613 114.630495,86.5052597 115.202061,86.3586813 C115.773627,86.212103 116.133231,86.0149737 116.621622,85.0865556 C116.849573,84.6532258 116.746724,84.9618708 116.841316,85.0069249 C116.919615,85.0442188 116.703546,85.4060163 116.621622,85.6081128 C116.458449,86.0106362 116.143428,86.4184629 115.551805,86.7186904 C115.144996,86.9251311 113.802206,87.0771162 113.802206,87.0771162 Z M113.757733,88.218381 C113.592665,88.218381 113.45999,88.1112272 113.45999,87.9781991 C113.45999,87.8448028 113.593837,87.7511378 113.757733,87.7380171 C114.476842,87.6804491 114.857287,87.6625351 115.269571,87.5140926 C115.681855,87.3656501 116.193057,86.8493164 116.454205,86.3977391 C116.621622,86.1082425 116.697933,85.7852253 116.697933,85.8859159 C116.697933,86.0193121 116.686218,86.1652419 116.621622,86.3683321 C116.413272,87.0233791 115.816204,87.731435 115.343309,87.9329744 C114.793697,88.1672094 113.757733,88.218381 113.757733,88.218381 Z M113.685881,89.3248233 C113.520812,89.3248737 113.388138,89.2312994 113.388138,89.1151924 C113.388138,88.9987641 113.52234,88.9209354 113.685881,88.9055616 C114.405882,88.8378773 114.890969,88.8285831 115.25118,88.6344908 C115.611392,88.4403984 116.021747,88.0503373 116.259276,87.6303708 C116.496805,87.2104042 116.529873,86.7789704 116.529873,86.8950774 C116.529873,87.0115057 116.551521,87.0742403 116.530604,87.2575786 C116.465842,87.8252254 115.886521,88.60998 115.534379,88.8539441 C115.182237,89.0979082 114.511051,89.3245713 113.685881,89.3248233 Z M113.661928,90.2727297 C113.496859,90.2727297 113.364185,90.20686 113.364185,90.1250849 C113.364185,90.0430834 113.497667,89.9878756 113.661928,89.97744 C114.715717,89.9104924 115.153701,89.6295276 115.340064,89.5013739 C115.524402,89.3746121 115.859754,89.1704201 116.064171,88.8054854 C116.140552,88.6691263 116.456603,87.9534686 116.456603,88.0352438 C116.456603,88.0727663 116.372039,88.4975683 116.269507,88.798548 C116.237524,88.8924323 116.203792,88.9742687 116.170334,89.028545 C115.935824,89.4089645 115.454793,89.8176536 114.966257,90.0555633 C114.670286,90.1996964 113.914162,90.2727297 113.661928,90.2727297 Z M113.614029,91.0568959 C113.44896,91.0568959 113.316286,91.0027345 113.316286,90.9354949 C113.316286,90.8680693 113.449682,90.8229865 113.614029,90.814094 C113.716317,90.8085594 114.495964,90.733822 114.964356,90.5067456 C115.508065,90.2219107 115.860996,90.0624736 116.442364,88.7015747 C116.608798,88.3119753 116.275006,89.3279425 116.064259,89.7851443 C115.954509,90.0232382 115.695887,90.388581 115.058941,90.7088421 C114.421995,91.0291032 113.614029,91.0568959 113.614029,91.0568959 Z M113.597511,91.5481449 C113.597511,91.5481449 114.306334,91.5120871 114.633763,91.4148168 C115.256911,91.2296961 115.954499,90.683569 116.528674,89.0232879 C116.386665,89.5128873 116.064712,90.0458576 115.769832,90.4036744 C115.475143,90.7397591 115.055096,91.0789955 114.709489,91.1969169 C114.363882,91.3148383 114.016082,91.3329281 113.597511,91.3687272 C113.433713,91.3827363 113.32554,91.3687272 113.32554,91.4733079 C113.32554,91.557235 113.432442,91.5481449 113.597511,91.5481449 Z M113.597511,91.9594184 C113.432442,91.9594184 113.304635,91.9594184 113.304635,91.8767972 C113.304635,91.7656782 113.435296,91.7848289 113.597511,91.7656782 C114.049325,91.7123381 114.44408,91.6393475 114.691931,91.5747436 C114.911465,91.5175211 115.342053,91.3321261 115.625923,90.9689317 C115.929325,90.580747 115.991076,90.4426834 116.152089,90.0338205 C116.204424,89.9009267 115.928828,90.7654866 115.838659,90.8925949 C115.74849,91.0197033 115.416521,91.4626065 114.836469,91.7260678 C114.418542,91.9256428 113.597511,91.9594184 113.597511,91.9594184 Z" id="Shape" fill="#DFDFDF" mask="url(#mask-15)"></path>
                                </g>
                                <g id="Screen" transform="translate(19.000000, 58.000000)" fill="#FFFFFF">
                                    <rect x="0.000611722833" y="0.643666576" width="74.7293961" height="93.6709582"></rect>
                                </g>
                            </g>
                        </g>
                    </g>
                </g>
            </g>
        </g>
    </g>
</svg>