<?xml version="1.0" encoding="UTF-8"?>
<svg width="356px" height="420px" viewBox="0 0 356 420" version="1.1" xmlns="http://www.w3.org/2000/svg" xmlns:xlink="http://www.w3.org/1999/xlink">
    <!-- Generator: Sketch 49.3 (51167) - http://www.bohemiancoding.com/sketch -->
    <title>applewatch</title>
    <desc>Created with Sketch.</desc>
    <defs>
        <filter x="-33.8%" y="-23.8%" width="167.7%" height="147.7%" filterUnits="objectBoundingBox" id="filter-1">
            <feGaussianBlur stdDeviation="14.5452009" in="SourceGraphic"></feGaussianBlur>
        </filter>
        <filter x="-58.2%" y="-57.4%" width="216.4%" height="214.8%" filterUnits="objectBoundingBox" id="filter-2">
            <feGaussianBlur stdDeviation="14.5452009" in="SourceGraphic"></feGaussianBlur>
        </filter>
        <radialGradient cx="50%" cy="83.347337%" fx="50%" fy="83.347337%" r="6.95096858%" gradientTransform="translate(0.500000,0.833473),scale(1.000000,0.530402),rotate(-90.000000),scale(1.000000,11.207615),translate(-0.500000,-0.833473)" id="radialGradient-3">
            <stop stop-color="#F2F2F2" offset="0%"></stop>
            <stop stop-color="#FAFAFA" stop-opacity="0" offset="100%"></stop>
        </radialGradient>
        <radialGradient cx="51.6887903%" cy="18.2225787%" fx="51.6887903%" fy="18.2225787%" r="6.95096858%" gradientTransform="translate(0.516888,0.182226),scale(1.000000,0.530402),rotate(-90.000000),scale(1.000000,11.207615),translate(-0.516888,-0.182226)" id="radialGradient-4">
            <stop stop-color="#FFFFFF" offset="0%"></stop>
            <stop stop-color="#FAFAFA" stop-opacity="0" offset="100%"></stop>
        </radialGradient>
        <linearGradient x1="53.7226498%" y1="6.07964611%" x2="53.7226498%" y2="-0.88568891%" id="linearGradient-5">
            <stop stop-color="#FAFAFA" stop-opacity="0" offset="0%"></stop>
            <stop stop-color="#F0F0F0" offset="100%"></stop>
        </linearGradient>
        <linearGradient x1="53.7226498%" y1="81.0567532%" x2="53.7226498%" y2="100%" id="linearGradient-6">
            <stop stop-color="#FAFAFA" stop-opacity="0" offset="0%"></stop>
            <stop stop-color="#D6D6D6" stop-opacity="0.43" offset="100%"></stop>
        </linearGradient>
        <path d="M105.556908,41.4469588 C113.628981,44.5789378 119.352241,52.4257082 119.352241,61.6096765 L119.352241,148.073306 C119.352241,154.9386 116.153308,161.05642 111.166603,165.016299 C110.728337,165.482893 110.256943,165.931075 109.751487,166.356654 C109.751487,166.356654 105.279146,169.246015 103.177341,171.256399 C101.075536,173.266783 100.245346,175.415992 99.3766413,177.88378 C97.4932472,183.234066 96.6865888,198.02087 96.3064225,201.288751 C95.9650402,204.223247 94.8273308,206.179769 91.1983644,207.252026 C89.9263179,207.62788 80.7180901,210.005753 64.8466578,210.129222 C64.7492049,210.132312 64.651943,210.131814 64.5548672,210.131232 C64.4579117,210.131814 64.3607102,210.132312 64.2632633,210.132725 C48.3520141,210.005825 37.5069955,207.627886 36.2349297,207.252026 C32.6059632,206.179769 31.4682539,204.223247 31.1268715,201.288751 C30.7467053,198.02087 30.024687,183.522566 28.0566528,177.88378 C27.1951504,175.415415 26.357758,173.266783 24.255953,171.256399 C22.1541481,169.246015 17.681807,166.356654 17.681807,166.356654 C17.0232285,165.80215 16.4224747,165.209275 15.8774811,164.587296 C11.1916003,160.621854 8.21621622,154.695169 8.21621622,148.073306 L8.21621622,61.6096765 C8.21621622,52.535107 13.8052792,44.7664959 21.7244569,41.5611919 C22.6616735,40.8591326 23.581032,40.1229326 24.255953,39.4773682 C26.357758,37.4669844 27.2398306,35.1934186 28.0566528,32.849987 C29.9509559,27.4153037 30.7467053,12.7128974 31.1268715,9.4450168 C31.4682539,6.51051998 32.6059632,4.5539988 36.2349297,3.48174123 C37.5069955,3.10588152 48.3520141,0.727942362 64.2632633,0.601042741 C64.3607102,0.601455253 64.4579117,0.601952954 64.5548672,0.602534889 C64.651943,0.601952954 64.7492049,0.601455253 64.8466578,0.604545356 C80.7180901,0.728014764 89.9263179,3.10588724 91.1983644,3.48174123 C94.8273308,4.5539988 95.9650402,6.51051998 96.3064225,9.4450168 C96.6865888,12.7128974 97.6361623,26.6287275 99.3766413,32.849987 C100.070566,35.3303872 101.075536,37.4669844 103.177341,39.4773682 C103.815746,40.0880049 104.672854,40.7797349 105.556908,41.4469588 Z M36.1316776,169.690616 C37.7716074,169.74473 39.3221402,169.783643 40.3900414,169.783643 L64.5549576,169.783643 L87.0432526,169.783643 C88.1111538,169.783643 89.6616866,169.74473 91.3016165,169.690616 L36.1316776,169.690616 Z" id="path-7"></path>
        <filter x="-3.1%" y="-1.7%" width="106.3%" height="103.3%" filterUnits="objectBoundingBox" id="filter-8">
            <feGaussianBlur stdDeviation="1.5" in="SourceAlpha" result="shadowBlurInner1"></feGaussianBlur>
            <feOffset dx="0" dy="0" in="shadowBlurInner1" result="shadowOffsetInner1"></feOffset>
            <feComposite in="shadowOffsetInner1" in2="SourceAlpha" operator="arithmetic" k2="-1" k3="1" result="shadowInnerInner1"></feComposite>
            <feColorMatrix values="0 0 0 0 0   0 0 0 0 0   0 0 0 0 0  0 0 0 0.0895040761 0" type="matrix" in="shadowInnerInner1" result="shadowMatrixInner1"></feColorMatrix>
            <feGaussianBlur stdDeviation="1.5" in="SourceAlpha" result="shadowBlurInner2"></feGaussianBlur>
            <feOffset dx="0" dy="-4" in="shadowBlurInner2" result="shadowOffsetInner2"></feOffset>
            <feComposite in="shadowOffsetInner2" in2="SourceAlpha" operator="arithmetic" k2="-1" k3="1" result="shadowInnerInner2"></feComposite>
            <feColorMatrix values="0 0 0 0 1   0 0 0 0 1   0 0 0 0 1  0 0 0 0.200096241 0" type="matrix" in="shadowInnerInner2" result="shadowMatrixInner2"></feColorMatrix>
            <feMerge>
                <feMergeNode in="shadowMatrixInner1"></feMergeNode>
                <feMergeNode in="shadowMatrixInner2"></feMergeNode>
            </feMerge>
        </filter>
        <path d="M31.8178343,44.7960053 L98.1571475,44.7960053 C107.21724,44.7960053 114.321243,52.1089982 114.321243,61.1251315 L114.561895,148.53143 C114.561895,157.549758 107.217957,164.860557 98.1571475,164.860557 L34.2243588,164.860557 C19.2341492,165.358637 13.0065621,158.803394 13.0065621,146.130139 L13.2472146,63.5264225 C13.2472146,50.607411 19.6686867,44.7960053 31.8178343,44.7960053 Z" id="path-9"></path>
        <linearGradient x1="182.241007%" y1="14.9688321%" x2="0%" y2="50%" id="linearGradient-11">
            <stop stop-color="#F7F9FA" stop-opacity="0" offset="0%"></stop>
            <stop stop-color="#EEF0F1" offset="100%"></stop>
        </linearGradient>
        <path d="M119.347495,107.243311 L120.223522,107.243311 L120.789345,107.830056 L120.789345,139.413322 L120.232479,140.148237 L119.347495,140.148237 C119.347495,140.148237 118.154655,138.304276 118.154655,135.068715 C118.154655,131.833153 118.154655,112.771154 118.154655,112.771154 C118.154655,112.771154 118.340053,109.696433 118.753779,108.61115 C119.167506,107.525868 119.347495,107.243311 119.347495,107.243311 Z" id="path-12"></path>
        <filter x="-3.8%" y="-0.3%" width="107.6%" height="100.6%" filterUnits="objectBoundingBox" id="filter-14">
            <feOffset dx="0.2" dy="0" in="SourceAlpha" result="shadowOffsetInner1"></feOffset>
            <feComposite in="shadowOffsetInner1" in2="SourceAlpha" operator="arithmetic" k2="-1" k3="1" result="shadowInnerInner1"></feComposite>
            <feColorMatrix values="0 0 0 0 0.874509804   0 0 0 0 0.874509804   0 0 0 0 0.874509804  0 0 0 1 0" type="matrix" in="shadowInnerInner1"></feColorMatrix>
        </filter>
        <path d="M123.831706,90.804512 C123.906452,90.6888826 123.971868,90.5641833 124.022828,90.4305747 C124.312757,89.6704273 124.621622,85.5064343 124.621622,83.3859022 L124.621622,78.7617207 C124.621622,74.0280126 124.406215,72.883498 124.016176,71.746769 C123.994956,71.6823015 123.971217,71.6189843 123.945076,71.5569348 C123.911399,71.4751276 123.877447,71.4040262 123.843393,71.344063 C123.418837,70.5528528 122.585822,70.0151094 121.627655,70.0151094 L121.285773,70.0151094 L120.94389,70.0151094 L118.969019,70.0151094 C117.171368,71.535993 115.759482,74.8130378 115.759482,80.8232969 C115.759482,87.2326973 117.309589,90.3826904 118.992965,92.0969835 L121.627655,92.1118483 C122.577268,92.1118483 123.403724,91.5838688 123.831706,90.804512 Z" id="path-15"></path>
        <filter x="-1.1%" y="-0.5%" width="102.3%" height="100.9%" filterUnits="objectBoundingBox" id="filter-17">
            <feOffset dx="0.2" dy="0" in="SourceAlpha" result="shadowOffsetInner1"></feOffset>
            <feComposite in="shadowOffsetInner1" in2="SourceAlpha" operator="arithmetic" k2="-1" k3="1" result="shadowInnerInner1"></feComposite>
            <feColorMatrix values="0 0 0 0 0.874509804   0 0 0 0 0.874509804   0 0 0 0 0.874509804  0 0 0 1 0" type="matrix" in="shadowInnerInner1"></feColorMatrix>
        </filter>
    </defs>
    <g id="Page-1" stroke="none" stroke-width="1" fill="none" fill-rule="evenodd">
        <g id="Desktop-HD-Copy-53" transform="translate(-1252.000000, -1971.000000)">
            <g id="Group-4" transform="translate(440.000000, 1031.000000)">
                <g id="Group-5-Copy-5" transform="translate(812.000000, 940.000000)">
                    <g id="Card">
                        <g id="Apple-Watch">
                            <rect id="bounds" x="0" y="0" width="356" height="420"></rect>
                            <g transform="translate(114.000000, 70.000000)">
                                <g id="Device" transform="translate(0.581081, 0.637654)">
                                    <ellipse id="Oval" fill="#000000" opacity="0.0721240942" filter="url(#filter-1)" cx="64.5" cy="107.5" rx="64.5" ry="91.5"></ellipse>
                                    <ellipse id="Oval-Copy" fill="#000000" opacity="0.0721240942" filter="url(#filter-2)" cx="64.5" cy="196" rx="37.5" ry="38"></ellipse>
                                    <g id="Shape">
                                        <use fill="#FAFAFA" fill-rule="evenodd" xlink:href="#path-7"></use>
                                        <use fill="url(#radialGradient-3)" fill-rule="evenodd" xlink:href="#path-7"></use>
                                        <use fill-opacity="0.5" fill="url(#radialGradient-4)" fill-rule="evenodd" xlink:href="#path-7"></use>
                                        <use fill="url(#linearGradient-5)" fill-rule="evenodd" xlink:href="#path-7"></use>
                                        <use fill="url(#linearGradient-6)" fill-rule="evenodd" xlink:href="#path-7"></use>
                                        <use fill="black" fill-opacity="1" filter="url(#filter-8)" xlink:href="#path-7"></use>
                                    </g>
                                    <mask id="mask-10" fill="white">
                                        <use xlink:href="#path-9"></use>
                                    </mask>
                                    <use id="Mask" fill="#FFFFFF" xlink:href="#path-9"></use>
                                    <mask id="mask-13" fill="white">
                                        <use xlink:href="#path-12"></use>
                                    </mask>
                                    <g id="Mask">
                                        <use fill="#F7F9FA" fill-rule="evenodd" xlink:href="#path-12"></use>
                                        <use fill="url(#linearGradient-11)" fill-rule="evenodd" xlink:href="#path-12"></use>
                                        <use fill="black" fill-opacity="1" filter="url(#filter-14)" xlink:href="#path-12"></use>
                                    </g>
                                    <mask id="mask-16" fill="white">
                                        <use xlink:href="#path-15"></use>
                                    </mask>
                                    <g id="Shape">
                                        <use fill="#F7F9FA" fill-rule="evenodd" xlink:href="#path-15"></use>
                                        <use fill="url(#linearGradient-11)" fill-rule="evenodd" xlink:href="#path-15"></use>
                                        <use fill="black" fill-opacity="1" filter="url(#filter-17)" xlink:href="#path-15"></use>
                                    </g>
                                    <path d="M121.507897,80.8833424 C121.507897,80.7175314 121.64435,80.583115 121.814213,80.583115 L124.79434,80.583115 C124.963514,80.583115 125.100656,80.7223806 125.100656,80.8833424 C125.100656,81.0491534 124.964203,81.1835698 124.79434,81.1835698 L121.814213,81.1835698 C121.645039,81.1835698 121.507897,81.0443042 121.507897,80.8833424 Z M121.80564,79.0219323 C121.80564,79.0219323 122.966254,79.0209126 123.530637,79.0819778 C123.904914,79.122474 124.275854,79.2210675 124.621622,79.4098824 C124.810661,79.5131117 124.891322,79.686213 124.851549,79.7999143 C124.802751,79.9394145 124.786691,79.9270711 124.621622,79.9270711 C124.621622,79.9270711 123.83276,79.7151218 123.422404,79.6707221 C122.894099,79.6135605 121.80564,79.6223872 121.80564,79.6223872 C121.64075,79.6223872 121.507897,79.4889051 121.507897,79.3221598 C121.507897,79.1558746 121.640571,79.0219323 121.80564,79.0219323 Z M121.802206,77.5168078 C121.802206,77.5168078 122.971958,77.5168078 123.530637,77.6408861 C123.863324,77.7147734 124.357369,77.9660519 124.621622,78.2296305 C124.738265,78.3459768 124.902111,78.5338263 124.862338,78.6475276 C124.81354,78.7870278 124.797479,78.7746845 124.63241,78.7746845 C124.63241,78.7746845 123.83276,78.2740301 123.422404,78.2296305 C122.894099,78.1724688 121.802206,78.1172627 121.802206,78.1172627 C121.637316,78.1172627 121.504463,77.9837805 121.504463,77.8170352 C121.504463,77.6507501 121.637137,77.5168078 121.802206,77.5168078 Z M121.802206,76.0757161 C121.802206,76.0757161 122.872942,76.1417317 123.428223,76.268753 C123.896813,76.3759436 124.367427,76.676171 124.630042,77.1898707 C124.693939,77.3148596 124.873867,77.8323672 124.834094,77.9460685 C124.785296,78.0855687 124.76401,78.207712 124.630042,77.8117285 C124.41594,77.1788848 123.852392,76.8847585 123.29264,76.7754454 C122.842843,76.6876054 121.802206,76.676171 121.802206,76.676171 C121.637316,76.676171 121.504463,76.5426889 121.504463,76.3759436 C121.504463,76.2096584 121.637137,76.0757161 121.802206,76.0757161 Z M121.802206,74.6986573 C121.802206,74.6986573 123.144996,74.8506425 123.551805,75.0570831 C124.143428,75.3573106 124.458449,75.7651373 124.621622,76.1676608 C124.703546,76.3697572 124.919615,76.7315547 124.841316,76.7688486 C124.746724,76.8139027 124.849573,77.1225477 124.621622,76.689218 C124.133231,75.7607998 123.773627,75.5636706 123.202061,75.4170922 C122.630495,75.2705138 121.802206,75.2991122 121.802206,75.2991122 C121.637316,75.2991122 121.504463,75.1656301 121.504463,74.9988848 C121.504463,74.8325996 121.637137,74.6986573 121.802206,74.6986573 Z M121.757733,73.5697993 C121.757733,73.5697993 122.793697,73.6209709 123.343309,73.8552059 C123.816204,74.0567453 124.413272,74.7648012 124.621622,75.4198482 C124.686218,75.6229383 124.697933,75.7688682 124.697933,75.9022644 C124.697933,76.002955 124.621622,75.6799378 124.454205,75.3904411 C124.193057,74.9388639 123.681855,74.4225302 123.269571,74.2740877 C122.857287,74.1256451 122.476842,74.1077312 121.757733,74.0501631 C121.593837,74.0370425 121.45999,73.9433775 121.45999,73.8099812 C121.45999,73.6769531 121.592665,73.5697993 121.757733,73.5697993 Z M121.685881,72.4649682 C122.511051,72.4652202 123.182237,72.6918832 123.534379,72.9358473 C123.886521,73.1798115 124.465842,73.9645661 124.530604,74.5322129 C124.551521,74.7155512 124.529873,74.7782858 124.529873,74.8947141 C124.529873,75.010821 124.496805,74.5793873 124.259276,74.1594207 C124.021747,73.7394541 123.611392,73.349393 123.25118,73.1553007 C122.890969,72.9612084 122.405882,72.9519142 121.685881,72.8842299 C121.52234,72.8688561 121.388138,72.7910273 121.388138,72.6745991 C121.388138,72.5584921 121.520812,72.4649178 121.685881,72.4649682 Z M121.661928,71.5762921 C121.914162,71.5762921 122.670286,71.6493254 122.966257,71.7934585 C123.454793,72.0313682 123.935824,72.4400573 124.170334,72.8204767 C124.203792,72.8747531 124.237524,72.9565895 124.269507,73.0504738 C124.372039,73.3514535 124.456603,73.7762555 124.456603,73.813778 C124.456603,73.8955532 124.140552,73.1798955 124.064171,73.0435363 C123.859754,72.6786017 123.524402,72.4744097 123.340064,72.3476479 C123.153701,72.2194941 122.715717,71.9385294 121.661928,71.8715818 C121.497667,71.8611462 121.364185,71.8059384 121.364185,71.7239369 C121.364185,71.6421618 121.496859,71.5762921 121.661928,71.5762921 Z M121.614029,70.9280452 C121.614029,70.9280452 122.395152,70.9545662 122.597288,71.015418 C122.782186,71.0710801 123.126988,71.2277047 123.290505,71.3246024 C123.618404,71.5189092 123.993454,71.9415264 124.103204,72.1796202 C124.313951,72.636822 124.386636,72.8760951 124.442364,73.2833665 C124.44342,73.2910869 124.154222,72.6143156 124.145949,72.5983847 C124.112237,72.5334647 123.731837,71.8690639 123.125954,71.5132267 C122.587767,71.197147 121.829651,71.1825139 121.614029,71.1708471 C121.449682,71.1619547 121.316286,71.1168719 121.316286,71.0494462 C121.316286,70.9822066 121.44896,70.9280452 121.614029,70.9280452 Z M121.597511,70.4408788 C121.432442,70.4408788 121.299768,70.4783217 121.299768,70.5248059 C121.299768,70.5714187 121.432887,70.6034771 121.597511,70.6087329 C121.980046,70.6209457 122.520056,70.6647031 122.847404,70.8326135 C122.997483,70.9095952 123.456782,71.1056621 123.934267,71.7929601 C124.13664,72.0842587 124.460569,73.0577063 124.458065,73.0423929 C124.213518,71.546885 123.256911,70.747764 122.633763,70.5626433 C122.306334,70.465373 121.597511,70.4408788 121.597511,70.4408788 Z M121.597511,70.0871611 C121.597511,70.0871611 122.523696,70.1405658 122.892445,70.3313744 C123.423293,70.6060608 123.89424,70.7771711 124.152089,71.9429859 C124.176277,72.0523459 123.808967,71.3529539 123.703813,71.2218243 C123.414237,70.8607163 122.862003,70.470206 122.691931,70.4020627 C122.463261,70.3104406 122.049325,70.2644682 121.597511,70.2111281 C121.435296,70.1919774 121.299768,70.18357 121.299768,70.1491446 C121.299768,70.1148142 121.432442,70.0871611 121.597511,70.0871611 Z M121.80564,82.6894425 C121.640571,82.6894425 121.507897,82.5555002 121.507897,82.3892151 C121.507897,82.2224698 121.64075,82.0889877 121.80564,82.0889877 C121.80564,82.0889877 122.894099,82.0978144 123.422404,82.0406527 C123.83276,81.9962531 124.621622,81.7843037 124.621622,81.7843037 C124.786691,81.7843037 124.802751,81.7719604 124.851549,81.9114606 C124.891322,82.0251619 124.810661,82.1982631 124.621622,82.3014924 C124.275854,82.4903073 123.904914,82.5889009 123.530637,82.629397 C122.966254,82.6904622 121.80564,82.6894425 121.80564,82.6894425 Z M121.802206,84.2671098 C121.637137,84.2671098 121.504463,84.1331675 121.504463,83.9668824 C121.504463,83.800137 121.637316,83.6666549 121.802206,83.6666549 C121.802206,83.6666549 122.894099,83.6114488 123.422404,83.5542871 C123.83276,83.5098875 124.63241,83.0092331 124.63241,83.0092331 C124.797479,83.0092331 124.81354,82.9968898 124.862338,83.13639 C124.902111,83.2500913 124.738265,83.4379408 124.621622,83.5542871 C124.357369,83.8178657 123.863324,84.0691442 123.530637,84.1430314 C122.971958,84.2671098 121.802206,84.2671098 121.802206,84.2671098 Z M121.802206,85.7094951 C121.637137,85.7094951 121.504463,85.5755529 121.504463,85.4092677 C121.504463,85.2425224 121.637316,85.1090403 121.802206,85.1090403 C121.802206,85.1090403 122.842843,85.0976058 123.29264,85.0097659 C123.852392,84.9004528 124.41594,84.6063264 124.630042,83.9734828 C124.76401,83.5774992 124.785296,83.6996426 124.834094,83.8391428 C124.873867,83.9528441 124.693939,84.4703516 124.630042,84.5953406 C124.367427,85.1090403 123.896813,85.4092677 123.428223,85.5164583 C122.872942,85.6434796 121.802206,85.7094951 121.802206,85.7094951 Z M121.802206,87.0771162 C121.637137,87.0771162 121.504463,86.9431739 121.504463,86.7768888 C121.504463,86.6101434 121.637316,86.4766613 121.802206,86.4766613 C121.802206,86.4766613 122.630495,86.5052597 123.202061,86.3586813 C123.773627,86.212103 124.133231,86.0149737 124.621622,85.0865556 C124.849573,84.6532258 124.746724,84.9618708 124.841316,85.0069249 C124.919615,85.0442188 124.703546,85.4060163 124.621622,85.6081128 C124.458449,86.0106362 124.143428,86.4184629 123.551805,86.7186904 C123.144996,86.9251311 121.802206,87.0771162 121.802206,87.0771162 Z M121.757733,88.218381 C121.592665,88.218381 121.45999,88.1112272 121.45999,87.9781991 C121.45999,87.8448028 121.593837,87.7511378 121.757733,87.7380171 C122.476842,87.6804491 122.857287,87.6625351 123.269571,87.5140926 C123.681855,87.3656501 124.193057,86.8493164 124.454205,86.3977391 C124.621622,86.1082425 124.697933,85.7852253 124.697933,85.8859159 C124.697933,86.0193121 124.686218,86.1652419 124.621622,86.3683321 C124.413272,87.0233791 123.816204,87.731435 123.343309,87.9329744 C122.793697,88.1672094 121.757733,88.218381 121.757733,88.218381 Z M121.685881,89.3248233 C121.520812,89.3248737 121.388138,89.2312994 121.388138,89.1151924 C121.388138,88.9987641 121.52234,88.9209354 121.685881,88.9055616 C122.405882,88.8378773 122.890969,88.8285831 123.25118,88.6344908 C123.611392,88.4403984 124.021747,88.0503373 124.259276,87.6303708 C124.496805,87.2104042 124.529873,86.7789704 124.529873,86.8950774 C124.529873,87.0115057 124.551521,87.0742403 124.530604,87.2575786 C124.465842,87.8252254 123.886521,88.60998 123.534379,88.8539441 C123.182237,89.0979082 122.511051,89.3245713 121.685881,89.3248233 Z M121.661928,90.2727297 C121.496859,90.2727297 121.364185,90.20686 121.364185,90.1250849 C121.364185,90.0430834 121.497667,89.9878756 121.661928,89.97744 C122.715717,89.9104924 123.153701,89.6295276 123.340064,89.5013739 C123.524402,89.3746121 123.859754,89.1704201 124.064171,88.8054854 C124.140552,88.6691263 124.456603,87.9534686 124.456603,88.0352438 C124.456603,88.0727663 124.372039,88.4975683 124.269507,88.798548 C124.237524,88.8924323 124.203792,88.9742687 124.170334,89.028545 C123.935824,89.4089645 123.454793,89.8176536 122.966257,90.0555633 C122.670286,90.1996964 121.914162,90.2727297 121.661928,90.2727297 Z M121.614029,91.0568959 C121.44896,91.0568959 121.316286,91.0027345 121.316286,90.9354949 C121.316286,90.8680693 121.449682,90.8229865 121.614029,90.814094 C121.716317,90.8085594 122.495964,90.733822 122.964356,90.5067456 C123.508065,90.2219107 123.860996,90.0624736 124.442364,88.7015747 C124.608798,88.3119753 124.275006,89.3279425 124.064259,89.7851443 C123.954509,90.0232382 123.695887,90.388581 123.058941,90.7088421 C122.421995,91.0291032 121.614029,91.0568959 121.614029,91.0568959 Z M121.597511,91.5481449 C121.597511,91.5481449 122.306334,91.5120871 122.633763,91.4148168 C123.256911,91.2296961 123.954499,90.683569 124.528674,89.0232879 C124.386665,89.5128873 124.064712,90.0458576 123.769832,90.4036744 C123.475143,90.7397591 123.055096,91.0789955 122.709489,91.1969169 C122.363882,91.3148383 122.016082,91.3329281 121.597511,91.3687272 C121.433713,91.3827363 121.32554,91.3687272 121.32554,91.4733079 C121.32554,91.557235 121.432442,91.5481449 121.597511,91.5481449 Z M121.597511,91.9594184 C121.432442,91.9594184 121.304635,91.9594184 121.304635,91.8767972 C121.304635,91.7656782 121.435296,91.7848289 121.597511,91.7656782 C122.049325,91.7123381 122.44408,91.6393475 122.691931,91.5747436 C122.911465,91.5175211 123.342053,91.3321261 123.625923,90.9689317 C123.929325,90.580747 123.991076,90.4426834 124.152089,90.0338205 C124.204424,89.9009267 123.928828,90.7654866 123.838659,90.8925949 C123.74849,91.0197033 123.416521,91.4626065 122.836469,91.7260678 C122.418542,91.9256428 121.597511,91.9594184 121.597511,91.9594184 Z" id="Shape" fill="#DFDFDF" mask="url(#mask-16)"></path>
                                </g>
                                <g id="Screen" transform="translate(27.000000, 58.000000)" fill="#FFFFFF">
                                    <rect x="0.000611722833" y="0.643666576" width="74.7293961" height="93.6709582"></rect>
                                </g>
                            </g>
                        </g>
                    </g>
                </g>
            </g>
        </g>
    </g>
</svg>