<?xml version="1.0" encoding="UTF-8"?>
<svg width="508px" height="374px" viewBox="0 0 508 374" version="1.1" xmlns="http://www.w3.org/2000/svg" xmlns:xlink="http://www.w3.org/1999/xlink">
    <!-- Generator: Sketch 49.3 (51167) - http://www.bohemiancoding.com/sketch -->
    <title>Ss</title>
    <desc>Created with Sketch.</desc>
    <defs></defs>
    <g id="Page-1" stroke="none" stroke-width="1" fill="none" fill-rule="evenodd">
        <path d="M201.806112,107.922164 C200.14953,92.7751181 194.055769,80.8233312 183.524643,72.0664452 C172.993518,63.3095591 158.380323,58.9311818 139.684617,58.9311818 C120.633931,58.9311818 105.813665,62.8658047 95.2233764,70.7351685 C84.6330878,78.6045323 79.3380229,88.9883867 79.3380229,101.887043 C79.3380229,114.312354 85.1951338,124.193287 96.9095313,131.530138 C108.623929,138.866988 125.07117,145.967059 146.251747,152.830565 L165.598155,159.043189 C199.913057,170.166801 226.240475,183.92319 244.581198,200.312767 C262.921921,216.702344 272.092146,238.742149 272.092146,266.432843 C272.092146,299.803679 260.318761,326.073943 236.771639,345.244423 C213.224516,364.414904 180.566686,374 138.797168,374 C114.421754,374 91.7920078,369.739957 70.9072486,361.219744 C50.0224894,352.69953 33.1019468,339.889818 20.1451132,322.790223 C7.18827957,305.690628 0.473308991,284.183328 0,258.267679 L68.8661138,258.267679 C70.1677135,276.846478 77.0305909,290.987453 89.4549519,300.69103 C101.879313,310.394606 118.859018,315.246322 140.394577,315.246322 C160.155228,315.246322 175.596702,310.572108 186.719463,301.223541 C197.842224,291.874973 203.403522,280.869862 203.403522,268.207879 C203.403522,255.664231 198.049294,244.98454 187.340678,236.168486 C176.632062,227.352432 157.847893,218.802763 130.987608,210.519222 L110.75375,204.661604 C90.0464817,198.626453 72.2089167,191.437631 57.2405198,183.094922 C42.272123,174.752213 30.7058081,164.102106 22.541228,151.144281 C14.3766479,138.186456 10.2944191,121.826709 10.2944191,102.064547 C10.2944191,81.3556946 16.0036231,63.3688471 27.4222025,48.1034646 C38.8407819,32.8380822 54.430163,21.0046299 74.1908133,12.6027527 C93.9514637,4.20087557 116.374141,0 141.459517,0 C166.544894,0 188.701339,4.49671187 207.929516,13.4902705 C227.157694,22.4838292 242.244192,35.0568722 253.189462,51.2097769 C264.134733,67.3626816 269.843937,86.2666217 270.317246,107.922164 L201.806112,107.922164 Z M304.241498,172.000949 C304.241498,157.445585 308.323727,144.132951 316.488307,132.062648 C324.652887,119.992346 336.307946,110.348082 351.453834,103.129568 C366.599722,95.9110539 384.644356,92.301851 405.588279,92.301851 C427.715475,92.301851 447.742061,96.3252248 465.668639,104.372093 C483.595217,112.418961 497.29139,124.193246 506.75757,139.695301 L459.545234,173.598481 C456.232071,168.865029 450.345379,163.392058 441.884981,157.179402 C433.424583,150.966746 422.213244,147.860465 408.250629,147.860465 C397.00954,147.860465 387.987223,150.256739 381.183406,155.049359 C374.37959,159.841979 370.977732,165.729122 370.977732,172.710963 C370.977732,180.521159 374.37959,186.349134 381.183406,190.195064 C387.987223,194.040994 397.542005,197.857282 409.848039,201.644044 L433.276717,208.389179 C458.362093,216.199375 477.087099,227.352403 489.452297,241.8486 C501.817494,256.344796 508,272.527042 508,290.395823 C508,305.661206 503.740283,319.595096 495.220721,332.197912 C486.701159,344.800727 474.60238,354.859162 458.924019,362.373517 C443.245659,369.887872 424.816467,373.644993 403.635889,373.644993 C383.283603,373.644993 363.375342,369.71037 343.91051,361.841006 C324.445678,353.971642 308.974622,341.102763 297.496879,323.233982 L347.371564,286.845752 C351.039709,292.407558 357.163052,298.738455 365.741778,305.838633 C374.320503,312.938811 386.182632,316.488847 401.32852,316.488847 C412.92459,316.488847 422.627279,314.15174 430.436877,309.477456 C438.246475,304.803172 442.151216,298.738528 442.151216,291.283341 C442.151216,283.354809 438.216894,276.846411 430.348132,271.75795 C422.47937,266.669489 411.386357,261.758606 397.06876,257.025154 L370.977732,249.392501 C347.43061,241.700642 330.421323,230.961784 319.949362,217.175605 C309.477401,203.389426 304.241498,188.331358 304.241498,172.000949 Z" id="Ss" fill="#000000"></path>
    </g>
</svg>